<?xml version="1.0" encoding="utf-8"?>
<!-- Generator: Adobe Illustrator 27.4.0, SVG Export Plug-In . SVG Version: 6.00 Build 0)  -->
<svg version="1.1" id="Layer_1" xmlns="http://www.w3.org/2000/svg" xmlns:xlink="http://www.w3.org/1999/xlink" x="0px" y="0px"
	 viewBox="0 0 421.4 125.7" style="enable-background:new 0 0 421.4 125.7;" xml:space="preserve">
<style type="text/css">
	.st0{opacity:0.9;fill:#012956;enable-background:new    ;}
	.st1{fill:#FDB71D;}
	.st2{fill:#FFFFFF;}
</style>
<path class="st0" d="M87,33c1.9,2.1,3.7,4.2,5.6,6.3c5,5.7,10.1,11.4,15.1,17.2c1.8,2.1,3.3,4.5,3.8,7.4c0.4,2-0.2,3.9-1.1,5.8
	c-1.1,2.4-2.8,4.3-4.6,6.3c-3.5,3.8-6.9,7.6-10.3,11.3c-1.3,1.4-2.7,2.8-4,4.2c-1.7,1.8-3.8,3.1-6.1,4c-3.8,1.5-7.8,2.4-11.9,2.4
	c-6.3-0.1-12.3-1.6-17.7-5c-4.4-2.8-8.3-6.1-11.8-10c-5-5.5-9.9-11.2-14.9-16.8c-0.1-0.1-0.3-0.2-0.3-0.4c0.2-0.1,0.3-0.1,0.5-0.1
	c2.9,0,5.7,0,8.6,0c0.4,0,0.7,0.1,1,0.4c5,5.7,10,11.3,15.1,17c2.1,2.4,4.5,4.4,7.6,5.5c1.3,0.5,2.7,0.8,4.1,0.6
	c1.4-0.2,1.9-1,1.5-2.3c-0.5-1.5-1.5-2.7-2.5-3.9c-5-5.6-10-11.2-15-16.9c-0.1-0.1-0.2-0.2-0.2-0.3c0.1-0.1,0.3-0.1,0.4-0.1
	c3.5,0,6.9,0,10.4,0c0.5,0,0.6,0.2,0.6,0.6c0.1,1.2,0.6,2.1,1.4,3c3,3.4,6,6.7,9,10.1c2.1,2.4,4.2,4.8,6.3,7.1
	c2,2.2,5.5,2.5,8.1,0.9c0.5-0.4,1-0.8,1.5-1.2c5.1-5.7,10.3-11.5,15.5-17.2c0.1-0.1,0.2-0.2,0.3-0.4c-0.2-0.1-0.3-0.1-0.5-0.1
	c-2.7,0-5.3,0-8,0c-0.4,0-0.6,0.1-0.7,0.5c-1.6,4.8-4.9,7.7-9.9,8.4c-7.4,1-13-4.4-13.6-10.5c-0.7-6.5,3.5-12.1,9.8-13.4
	c5.8-1.1,11.6,2.3,13.6,7.9c0.2,0.6,0.4,0.7,1,0.7c2.6,0,5.2,0,7.8,0c0.2,0,0.4,0.1,0.6-0.1C95.9,54.1,89,46.4,82,38.7
	c0-0.3,0.2-0.5,0.4-0.7c1.4-1.5,2.7-3.1,4.1-4.7C86.7,33.2,86.8,33.1,87,33z"/>
<path class="st0" d="M55.4,45.6c3.3,0,6.4,0,9.6,0c-0.7,0.8-1.3,1.5-2,2.2c-1.8,2.1-3.7,4.2-5.5,6.3c-0.2,0.3-0.5,0.4-0.9,0.4
	c-2.8,0-5.7,0-8.5,0c-0.4,0-0.6,0.1-0.9,0.4c-2.8,3.3-5.7,6.5-8.6,9.7c-0.2,0.2-0.3,0.3-0.5,0.3c-3.1,0-6.2,0-9.3,0
	c0,0-0.1,0-0.1-0.1c0.9-1,1.8-2,2.6-3c8.3-9.5,16.7-18.9,25-28.4c0.3-0.3,0.5-0.4,1-0.4c2.9,0,5.7,0,8.6,0c0.2,0,0.3,0,0.7,0
	C62.8,37.2,59.1,41.3,55.4,45.6z"/>
<path class="st1" d="M87,33c-1.4,1.6-2.8,3.2-4.1,4.8c-0.3,0.3-0.5,0.6-0.8,0.9c-2.5,2.8-4.9,5.6-7.4,8.4C70.8,51.5,66.9,56,63,60.4
	c-1.1,1.2-2,2.6-2.2,4.3c0,0.2-0.1,0.3-0.3,0.3c-3.8,0-7.5,0-11.4,0c0.8-0.9,1.4-1.7,2.1-2.4c5.1-5.8,10.3-11.7,15.4-17.5
	c3.4-3.9,6.9-7.8,10.3-11.7c0.2-0.2,0.3-0.3,0.5-0.3C80.6,33,83.8,33,87,33z"/>
<path class="st2" d="M79.4,59.1c-0.9,0.4-1.7,1-2.4,1.7l0,0l-0.3,0.3l0,0l0,0l0,0c-0.5,0.6-0.8,1.3-1.1,2c-0.2,0.6-0.3,1.3-0.3,2
	c0,3.6,3,6.6,6.6,6.6c0.8,0,1.7-0.2,2.4-0.5c0.6-0.3,1.2-0.6,1.8-1.1l0.4-0.3c0.5-0.5,0.9-1.1,1.3-1.7l0,0c0.4-0.8,0.7-1.7,0.7-2.6
	c0,0,0-0.9,0-1c0,0,0-0.3,0-0.4l0,0c0-0.3-0.1-0.5-0.2-0.8c0-0.1,0-0.1-0.1-0.2c-0.1-0.4-0.3-0.8-0.5-1.2c-0.7-1.3-1.8-2.3-3.2-2.9
	c-0.8-0.4-1.7-0.5-2.6-0.5c-0.6,0-1.3,0.1-1.9,0.3L79.4,59.1z M85.5,70.5L85.5,70.5C85.5,70.5,85.5,70.5,85.5,70.5
	C85.4,70.6,85.4,70.6,85.5,70.5c-0.2,0.1-0.2,0.2-0.3,0.2l0,0c0-0.1,0-0.1,0.1-0.2C85.3,70.5,85.4,70.5,85.5,70.5
	C85.4,70.5,85.4,70.5,85.5,70.5z M84.7,71c-0.1,0-0.1,0-0.2,0.1c0,0,0,0-0.1,0c0,0,0,0-0.1,0h-0.1h-0.1H84h-0.1h-0.1h-0.1h-0.1h-0.1
	h-0.1h-0.1c0,0,0,0-0.1,0h-0.1c0,0,0,0-0.1,0h-0.1c0,0,0,0-0.1,0h-0.1c0,0,0,0-0.1,0s-0.1,0-0.2,0l0,0c-0.1,0-0.1,0-0.2,0l0,0h-0.1
	c0.2-0.3,0.4-0.5,0.6-0.8l0,0h0.1h0.1H83h0.1h0.1h0.1h0.1h0.1h0.1h0.1h0.1h0.1H84c0,0,0,0,0.1,0l0,0c0.1,0,0.2,0,0.2,0l0,0
	c0.1,0,0.1,0,0.2,0c0,0,0,0,0.1,0s0.1,0,0.2,0c0,0,0,0,0.1,0H85c0,0.1-0.1,0.2-0.1,0.3C84.9,70.9,84.8,70.9,84.7,71
	C84.8,70.9,84.7,70.9,84.7,71z M75.8,64C75.8,63.9,75.8,63.9,75.8,64c0-0.1,0-0.2,0-0.2v-0.1v-0.1v-0.1v-0.1v-0.1l0,0
	c0-0.1,0-0.1,0.1-0.2l0,0c0-0.1,0-0.1,0.1-0.2l0,0c0-0.1,0-0.1,0.1-0.2l0,0c0-0.1,0-0.1,0.1-0.2l0,0c0,0,0-0.1,0.1-0.1l0,0
	c0-0.1,0.1-0.1,0.1-0.2l0,0c0.1,0,0.1,0,0.2-0.1v0.1v0.1v0.1v0.1v0.1c0,0.1,0,0.1,0,0.2l0,0c0,0.1,0,0.1,0,0.2c0,0,0,0,0,0.1
	s0,0.1,0,0.2v0.1v0.1v0.1v0.1v0.1v0.1V64v0.1v0.1v0.1v0.1v0.1c-0.3,0.2-0.5,0.4-0.8,0.7c0,0,0,0,0-0.1c0,0,0,0,0-0.1v-0.1
	c0,0,0,0,0-0.1v-0.1c0,0,0,0,0-0.1v-0.1c0,0,0,0,0-0.1v-0.1c0,0,0,0,0-0.1L75.8,64L75.8,64C75.8,64,75.8,64,75.8,64z M77,61.1
	L77,61.1L77,61.1l0.2-0.2l0,0l0.1-0.1l0,0l0.1-0.1l0,0l0.1-0.1c0,0,0,0,0.1,0l0.1-0.1c0,0,0,0,0.1,0l0.1-0.1l0,0
	c0.1,0,0.1-0.1,0.2-0.1l0,0l0.1-0.1c0,0,0,0,0.1,0c0,0,0.1,0,0.1-0.1c0,0,0,0,0.1,0c0,0,0.1,0,0.1-0.1c0,0,0,0,0.1,0
	s0.1-0.1,0.2-0.1c-0.4,0.5-0.7,1.1-0.8,1.8c-0.4,0.1-0.9,0.2-1.4,0.4l0,0V62v-0.1v-0.1v-0.1C76.9,61.2,77,61.2,77,61.1L77,61.1z
	 M81.8,71.2L81.8,71.2c-0.1,0-0.2,0-0.2,0l0,0c-0.1,0-0.1,0-0.2,0l0,0c-0.1,0-0.1,0-0.2,0c-0.1,0-0.1,0-0.2-0.1
	c-0.4-0.1-0.8-0.3-1.2-0.5c0.3-0.3,0.6-0.6,0.9-0.9c0.6,0.3,1.2,0.6,1.8,0.7c0,0,0,0,0.1,0C82.3,70.7,82.1,70.9,81.8,71.2L81.8,71.2
	z M77.7,68.9l-0.1-0.1c0,0,0,0-0.1-0.1c0,0,0-0.1-0.1-0.1c0,0,0-0.1-0.1-0.1c0,0,0,0-0.1-0.1l-0.1-0.1c0,0,0,0,0-0.1L77,68.1l0,0
	L76.9,68l0,0l-0.1-0.1l0,0l-0.1-0.1l0,0c0,0,0-0.1-0.1-0.1c0.3-0.3,0.6-0.6,0.9-0.9c0,0,0,0.1,0.1,0.1c0,0,0,0.1,0.1,0.1l0.1,0.1
	c0,0,0,0.1,0.1,0.1l0.1,0.1c0,0,0,0.1,0.1,0.1l0.1,0.1c0,0,0,0.1,0.1,0.1l0.1,0.1c0,0,0,0.1,0.1,0.1l0.1,0.1c0,0,0,0.1,0.1,0.1
	l0.1,0.1c0,0,0,0,0.1,0.1l0.1,0.1l-1.1,0.8C77.8,69.1,77.8,69,77.7,68.9C77.8,69,77.7,69,77.7,68.9z M75.9,65.4
	c0.3-0.2,0.5-0.5,0.8-0.7c0,0,0.1,0.3,0.1,0.4l0.1,0.2c0,0.1,0.1,0.2,0.1,0.2c0,0.1,0.1,0.2,0.1,0.3c0,0.1,0.1,0.2,0.1,0.3
	c0,0,0,0.1,0.1,0.1l0.1,0.2l0.1,0.1c-0.3,0.3-0.6,0.6-0.9,0.9C76.2,66.8,76,66.2,75.9,65.4z M83.1,60.5c0.5,0.3,1,0.7,1.3,1
	c-0.4-0.2-0.9-0.4-1.6-0.5C82.8,60.9,82.9,60.7,83.1,60.5C83.1,60.6,83.1,60.5,83.1,60.5z M88.2,64.1L88.2,64.1c0,0.1,0,0.1,0,0.2
	l0,0v0.1l0,0v0.1l0,0c-0.2-0.5-0.6-1-1.1-1.5c0-0.1,0-0.2,0-0.3c0-0.2-0.1-0.4-0.2-0.6c0.2,0,0.5,0.1,0.7,0.2c0.2,0.3,0.3,0.7,0.5,1
	C88.1,63.6,88.2,63.8,88.2,64.1z M79.8,68.8c-0.2-0.2-0.5-0.4-0.7-0.6l1.3-1.3l0,0c0.4,0.4,0.9,0.8,1.4,1.1
	c-0.4,0.5-0.7,0.9-1.1,1.4C80.3,69.2,80,69,79.8,68.8z M78.7,67.8C78.7,67.8,78.6,67.8,78.7,67.8c-0.1-0.1-0.2-0.2-0.2-0.2
	s0-0.1-0.1-0.1l-0.1-0.1c0,0,0-0.1-0.1-0.1l-0.1-0.1c0,0,0-0.1-0.1-0.1L77.9,67c0,0,0-0.1-0.1-0.1l-0.1-0.1c0,0,0-0.1-0.1-0.1
	l-0.1-0.1c0,0,0,0,0-0.1c0.5-0.4,0.9-0.8,1.4-1.2c0.3,0.5,0.6,0.9,1,1.3l-1.3,1.3C78.9,68,78.8,68,78.7,67.8
	C78.8,67.9,78.7,67.9,78.7,67.8z M77.4,66l-0.1-0.2l-0.1-0.3L77,65.1l-0.1-0.2c0,0,0-0.2-0.1-0.2c0.5-0.4,1-0.7,1.5-0.9
	c0.2,0.5,0.4,1,0.7,1.5c-0.5,0.4-0.9,0.8-1.4,1.2C77.6,66.4,77.4,66,77.4,66z M82.8,61.2c0.9,0.2,1.5,0.4,1.8,0.6
	c-0.4,0-1,0-1.7,0.1C82.7,61.7,82.7,61.5,82.8,61.2z M86,61.2c0.2,0.2,0.4,0.4,0.5,0.7c-0.4-0.1-0.9-0.1-1.4-0.1l0.7-0.7
	C85.9,61.1,85.9,61.2,86,61.2z M81.1,64c0.7-0.4,1.3-0.8,1.9-1.1c0.1,0.2,0.2,0.3,0.3,0.5L81.8,65C81.6,64.6,81.3,64.3,81.1,64z
	 M81.7,65.1l-1.4,1.5c-0.4-0.4-0.7-0.9-1-1.3c0.6-0.4,1.1-0.8,1.7-1.1C81.2,64.4,81.4,64.8,81.7,65.1z M83.2,62.8
	c0.5-0.3,1-0.5,1.3-0.6l-1,1C83.4,63.1,83.3,63,83.2,62.8z M85.1,61.6c0-0.1,0-0.2,0-0.2c0-0.2,0.1-0.5,0-0.8
	c0.2,0.1,0.4,0.2,0.6,0.4L85.1,61.6z M84.9,61.4L84.9,61.4c-0.1-0.3-0.3-0.7-0.6-1.1h0.1c0.2,0,0.4,0.1,0.6,0.2
	C84.9,60.8,84.9,61.1,84.9,61.4z M84.5,62c-0.3,0.1-0.8,0.4-1.4,0.6c-0.1-0.2-0.2-0.3-0.2-0.5C83.5,62.1,84.1,62,84.5,62z
	 M82.9,62.8c-0.6,0.3-1.2,0.6-1.9,1.1c-0.2-0.4-0.4-0.7-0.5-1.1c0.5-0.2,0.9-0.3,1.3-0.4c0.3-0.1,0.6-0.1,0.8-0.2
	C82.7,62.4,82.8,62.6,82.9,62.8z M80.9,63.9c-0.5,0.3-1.1,0.7-1.7,1.1c-0.3-0.5-0.5-1-0.7-1.5c0.6-0.3,1.2-0.6,1.8-0.8
	C80.4,63.2,80.6,63.6,80.9,63.9z M80.5,66.8C80.5,66.7,80.5,66.7,80.5,66.8l1.4-1.5l0.1,0.1c0.3,0.3,0.7,0.6,1,0.8
	c-0.3,0.6-0.7,1.1-1.1,1.6C81.4,67.6,80.9,67.2,80.5,66.8z M82.1,65.2L82.1,65.2l1.4-1.7l0.1,0.1c0.2,0.2,0.3,0.3,0.5,0.4
	c-0.3,0.7-0.6,1.3-1,2C82.7,65.8,82.4,65.5,82.1,65.2z M83.7,63.5C83.7,63.5,83.7,63.4,83.7,63.5l1-1.2c-0.2,0.5-0.4,1.1-0.6,1.6
	C84,63.8,83.9,63.6,83.7,63.5z M84.9,62.5c0,0.6,0,1.2,0,1.8c-0.2-0.1-0.3-0.2-0.5-0.3C84.5,63.5,84.7,63,84.9,62.5z M85.1,62.4
	c0.4,0.7,0.6,1.4,0.8,2.1c-0.2,0-0.5,0-0.8-0.1C85.1,63.7,85.1,63.1,85.1,62.4z M85.3,62.5C85.4,62.5,85.4,62.5,85.3,62.5
	c0.5,0.4,1,0.9,1.4,1.6c0,0,0,0.1-0.1,0.1c-0.2,0.2-0.4,0.3-0.6,0.3C85.9,63.8,85.7,63.1,85.3,62.5z M85.6,62.4
	c-0.1-0.1-0.1-0.1-0.2-0.2c0.4,0.2,1,0.5,1.6,1c0,0.2,0,0.5-0.1,0.6C86.4,63.2,86,62.8,85.6,62.4z M86.7,62.8
	c-0.5-0.3-0.9-0.6-1.3-0.7c0.4,0,0.8,0,1.2,0.1c0.1,0.2,0.2,0.5,0.3,0.7V63C86.9,62.9,86.8,62.8,86.7,62.8z M86.8,62
	c-0.2-0.3-0.4-0.6-0.7-0.9L86,61l0.3-0.3c0.1,0.1,0.1,0.1,0.2,0.2c0.4,0.4,0.7,0.8,1,1.2C87.2,62,87,62,86.8,62z M86.1,60.6
	l-0.3,0.3c-0.2-0.2-0.5-0.4-0.7-0.5c0-0.2,0-0.4-0.1-0.6C85.4,60,85.8,60.3,86.1,60.6z M84.9,60.3c-0.2-0.1-0.3-0.2-0.5-0.2
	c-0.1,0-0.2,0-0.3,0c-0.3-0.3-0.6-0.7-1.1-1c0.6,0.1,1.2,0.3,1.8,0.6C84.8,59.9,84.9,60.1,84.9,60.3z M84,60.3
	c0.4,0.5,0.6,1,0.7,1.3c-0.3-0.3-0.8-0.7-1.4-1.2C83.5,60.3,83.7,60.2,84,60.3C84,60.2,84,60.3,84,60.3z M82.6,62
	c-0.3,0-0.5,0.1-0.8,0.2c-0.4,0.1-0.9,0.2-1.3,0.4c-0.1-0.5-0.2-1-0.2-1.4c0.9-0.1,1.7,0,2.3,0.1C82.5,61.4,82.5,61.7,82.6,62z
	 M80.3,62.6c-0.6,0.2-1.2,0.5-1.8,0.8c-0.2-0.7-0.2-1.3-0.2-1.9c0.6-0.2,1.2-0.3,1.8-0.3C80,61.6,80.1,62.1,80.3,62.6z M78.3,63.5
	c-0.5,0.3-1,0.6-1.5,0.9l0,0v-0.1v-0.1v-0.1V64v-0.1v-0.1v-0.1v-0.1v-0.1v-0.1v-0.1v-0.1v-0.1V63v-0.1v-0.1v-0.1v-0.1v-0.1v-0.1
	v-0.1c0,0,0,0,0-0.1c0.5-0.2,0.9-0.3,1.4-0.4C78,62.1,78.1,62.8,78.3,63.5z M78.9,68.3c0.5,0.5,1,0.9,1.6,1.2
	c-0.3,0.3-0.6,0.6-0.9,0.9c-0.6-0.3-1.1-0.7-1.6-1.2L78.9,68.3z M82.5,70.2c-0.6-0.2-1.2-0.4-1.7-0.7c0.4-0.4,0.8-0.9,1.1-1.3
	c0.5,0.3,1,0.5,1.5,0.7C83.2,69.4,82.9,69.8,82.5,70.2C82.6,70.2,82.5,70.2,82.5,70.2z M82,68c0.4-0.5,0.8-1.1,1.1-1.6
	c0.4,0.2,0.7,0.4,1.1,0.6c-0.2,0.6-0.4,1.2-0.7,1.7C83,68.5,82.5,68.3,82,68z M83.2,66.2c0.4-0.6,0.7-1.3,1-2
	c0.2,0.1,0.4,0.2,0.6,0.3c-0.1,0.8-0.2,1.5-0.5,2.3C84,66.6,83.6,66.4,83.2,66.2z M85,64.5c0.3,0.1,0.5,0.1,0.8,0.1h0.1
	c0.1,0.3,0.1,0.7,0.1,1c0,0.5,0,0.9,0,1.4c-0.5,0-0.9-0.1-1.4-0.3C84.8,66.1,84.9,65.3,85,64.5z M86.2,65.7c0-0.3-0.1-0.7-0.1-1
	c0.3,0,0.5-0.2,0.7-0.4l0,0c0.3,0.6,0.6,1.3,0.7,2.3c-0.4,0.3-0.8,0.5-1.4,0.5C86.2,66.6,86.2,66.1,86.2,65.7z M86.9,64.1
	c0.1-0.2,0.2-0.4,0.2-0.7c0.5,0.5,1,1.1,1.1,1.8c-0.1,0.5-0.3,0.9-0.6,1.2C87.5,65.4,87.3,64.7,86.9,64.1z M83.8,60.1
	c-0.3,0-0.5,0.1-0.7,0.2c-0.5-0.3-1.2-0.7-1.9-0.9c0.4-0.2,0.9-0.4,1.4-0.4C83.1,59.3,83.5,59.7,83.8,60.1z M82.9,60.4L82.9,60.4
	c-0.2,0.2-0.3,0.4-0.3,0.6c-0.6-0.1-1.4-0.1-2.3-0.1c0.1-0.5,0.3-0.9,0.6-1.3l0.1-0.1C81.7,59.8,82.4,60.1,82.9,60.4z M80.8,59.5
	c-0.4,0.4-0.6,0.9-0.7,1.4C79.6,61,79,61,78.4,61.2c0.1-0.7,0.4-1.3,0.9-1.7c0.1-0.1,0.2-0.2,0.3-0.2C80,59.3,80.4,59.4,80.8,59.5
	L80.8,59.5z M76.5,61.8L76.5,61.8L76.5,61.8C76.6,61.7,76.6,61.7,76.5,61.8C76.6,61.8,76.5,61.8,76.5,61.8z M75.7,65.6
	C75.8,65.7,75.8,65.7,75.7,65.6c0,0.1,0,0.2,0,0.2s0,0,0,0.1c0,0.1,0,0.1,0,0.2l0,0c0,0.1,0,0.1,0.1,0.2c0,0,0,0,0,0.1v0.1
	c0,0,0,0,0,0.1v0.1c0,0,0,0,0,0.1c0,0,0,0.1,0.1,0.1l0,0c0,0.1,0,0.1,0.1,0.2l0,0c0,0,0,0.1,0.1,0.1c0,0,0,0,0,0.1
	c0,0,0,0.1,0.1,0.1c0,0,0,0,0,0.1c0,0,0,0.1,0.1,0.1c-0.1,0.1-0.2,0.3-0.3,0.4c-0.3-0.7-0.5-1.4-0.6-2.2
	C75.6,65.7,75.7,65.6,75.7,65.6L75.7,65.6z M76.6,67.7C76.6,67.8,76.6,67.8,76.6,67.7C76.6,67.8,76.6,67.8,76.6,67.7
	c0.1,0.1,0.1,0.2,0.1,0.2s0,0,0,0.1c0,0,0,0.1,0.1,0.1c0,0,0,0,0,0.1c0,0,0,0.1,0.1,0.1c0,0,0,0,0,0.1l0.1,0.1l0,0
	c0,0.1,0.1,0.1,0.1,0.2l0,0l0.1,0.1c0,0,0,0,0,0.1l0.1,0.1c0,0,0,0,0,0.1l0.1,0.1l0,0l0.1,0.1l-0.4,0.4c-0.4-0.4-0.8-1-1.1-1.5
	C76.4,68,76.5,67.9,76.6,67.7z M77.9,69.4c0.5,0.5,1,0.8,1.6,1.2c-0.1,0.1-0.3,0.2-0.4,0.4c-0.6-0.3-1.1-0.7-1.6-1.1L77.9,69.4z
	 M79.6,70.6c0.4,0.2,0.9,0.4,1.3,0.5c0.1,0,0.2,0.1,0.3,0.1h0.1c0.1,0,0.1,0,0.2,0h0.1c0.1,0,0.1,0,0.2,0l0,0
	c-0.1,0.1-0.1,0.1-0.2,0.2c-0.8,0-1.6-0.3-2.3-0.6C79.4,70.9,79.5,70.8,79.6,70.6z M83.4,70.4c-0.2,0-0.4-0.1-0.6-0.1
	c0.3-0.5,0.6-0.9,0.8-1.4c0.7,0.2,1.3,0.3,1.9,0.2c-0.1,0.4-0.3,0.8-0.4,1.2C84.6,70.4,84,70.4,83.4,70.4z M83.7,68.7
	c0.3-0.6,0.5-1.1,0.7-1.7c0.5,0.2,1,0.3,1.5,0.3c-0.1,0.5-0.2,1-0.3,1.6C85,68.9,84.4,68.9,83.7,68.7z M86.1,67.3
	c0.5,0,1-0.2,1.4-0.5c0,0.4,0.1,0.8,0.1,1.2c-0.5,0.5-1.1,0.7-1.8,0.8C86,68.3,86.1,67.8,86.1,67.3z M87.7,66.7
	C87.8,66.7,87.8,66.6,87.7,66.7c0.3-0.3,0.4-0.5,0.5-0.8c-0.1,0.6-0.2,1.2-0.4,1.7C87.8,67.3,87.8,67,87.7,66.7z M82.2,58.8
	L82.2,58.8L82.2,58.8c-0.4,0.1-0.9,0.3-1.2,0.5c-0.3-0.1-0.7-0.2-1-0.2c0.6-0.2,1.3-0.3,2-0.3C82,58.8,82.1,58.8,82.2,58.8z
	 M75.6,64.4L75.6,64.4C75.6,64.5,75.6,64.5,75.6,64.4c0,0.1,0,0.2,0,0.2s0,0,0,0.1v0.1c0,0,0,0,0,0.1V65c0,0,0,0,0,0.1s0,0.1,0,0.2
	l0,0l0,0l-0.1,0.1c0-0.1,0-0.2,0-0.3C75.5,64.9,75.6,64.7,75.6,64.4z M81.9,71.6L81.9,71.6c0-0.1,0-0.1,0-0.2l0,0H82h0.1h0.1h0.1
	h0.1h0.1h0.1c0,0,0,0,0.1,0s0.1,0,0.2,0l0,0C82.7,71.6,82.3,71.6,81.9,71.6z M86,70.1c-0.1,0-0.3,0.1-0.4,0.1s-0.2,0-0.3,0.1
	c0.2-0.4,0.3-0.8,0.4-1.2c0.6-0.1,1.2-0.3,1.7-0.6C87.1,69.1,86.6,69.6,86,70.1z"/>
<path d="M122.4,38.2h16.5v3.1h-6.5v17.3h-3.6V41.3h-6.4V38.2z"/>
<path d="M151.1,58.5h-3.2v-2.1h-0.1c-0.4,0.7-1,1.3-1.8,1.8c-0.8,0.4-1.6,0.7-2.4,0.7c-1.9,0-3.3-0.5-4.2-1.4
	c-0.9-1-1.3-2.4-1.3-4.3v-9.4h3.2v9c0,1.3,0.2,2.2,0.7,2.7s1.2,0.8,2.1,0.8c0.7,0,1.3-0.1,1.7-0.3c0.5-0.2,0.8-0.5,1.1-0.8
	c0.3-0.3,0.5-0.8,0.6-1.3c0.1-0.5,0.2-1,0.2-1.6v-8.6h3.2v14.8H151.1z"/>
<path d="M154.5,43.8h3.1V46l0.1,0.1c0.5-0.8,1.1-1.5,1.9-1.9c0.8-0.5,1.7-0.7,2.7-0.7c1.6,0,2.9,0.4,3.8,1.3
	c0.9,0.8,1.4,2.1,1.4,3.8v10.1h-3.2v-9.3c0-1.2-0.3-2-0.7-2.5s-1.2-0.8-2.1-0.8c-0.6,0-1,0.1-1.5,0.3c-0.4,0.2-0.8,0.5-1.1,0.8
	c-0.3,0.4-0.5,0.8-0.7,1.2c-0.2,0.5-0.3,1-0.3,1.5v8.7h-3.2V43.8H154.5z"/>
<path d="M184.5,57.8c0,2.2-0.6,3.9-1.9,5c-1.2,1.1-3,1.6-5.4,1.6c-0.7,0-1.5-0.1-2.2-0.2c-0.8-0.2-1.4-0.4-2.1-0.8
	c-0.6-0.4-1.1-0.8-1.6-1.4c-0.4-0.6-0.7-1.3-0.7-2.2h3.2c0.1,0.5,0.3,0.8,0.5,1.1s0.5,0.5,0.8,0.7s0.7,0.3,1,0.3
	c0.4,0,0.8,0.1,1.2,0.1c1.3,0,2.3-0.3,2.9-1c0.6-0.6,0.9-1.6,0.9-2.8v-2.3H181c-0.5,0.8-1.1,1.5-1.9,1.9s-1.6,0.7-2.6,0.7
	c-1.2,0-2.2-0.2-3-0.6c-0.8-0.4-1.5-1-2.1-1.7c-0.5-0.7-0.9-1.5-1.2-2.5c-0.2-0.9-0.4-1.9-0.4-3c0-1,0.2-1.9,0.5-2.8
	c0.3-0.9,0.7-1.7,1.3-2.4s1.3-1.2,2.1-1.6c0.8-0.4,1.8-0.6,2.8-0.6c0.9,0,1.8,0.2,2.6,0.6c0.8,0.4,1.4,1,1.8,1.8h0.1v-2h3.2v14.1
	H184.5z M177.3,56c0.7,0,1.3-0.1,1.8-0.4c0.5-0.3,0.9-0.7,1.2-1.2s0.5-1,0.7-1.7c0.1-0.6,0.2-1.2,0.2-1.9c0-0.6-0.1-1.2-0.2-1.8
	c-0.2-0.6-0.4-1.1-0.7-1.6s-0.7-0.8-1.2-1.1s-1.1-0.4-1.8-0.4s-1.3,0.2-1.8,0.5s-0.9,0.7-1.2,1.2s-0.5,1-0.7,1.7
	c-0.1,0.6-0.2,1.2-0.2,1.8s0.1,1.2,0.2,1.8c0.2,0.6,0.4,1.1,0.7,1.6s0.7,0.8,1.2,1.1C176,55.8,176.6,56,177.3,56z"/>
<path d="M187.8,38.2h3.2v7.6h0.1c0.4-0.7,1-1.2,1.8-1.7s1.7-0.7,2.6-0.7c1.6,0,2.9,0.4,3.8,1.3c0.9,0.8,1.4,2.1,1.4,3.8v10.1h-3.2
	v-9.3c0-1.2-0.3-2-0.7-2.5s-1.2-0.8-2.1-0.8c-0.6,0-1,0.1-1.5,0.3c-0.4,0.2-0.8,0.5-1.1,0.8c-0.3,0.4-0.5,0.8-0.7,1.2
	c-0.2,0.5-0.3,1-0.3,1.5v8.7h-3.2V38.2H187.8z"/>
<path d="M216.5,55.3c0,0.4,0.1,0.7,0.2,0.9c0.1,0.2,0.3,0.3,0.6,0.3c0.1,0,0.2,0,0.3,0s0.3,0,0.5-0.1v2.3c-0.1,0-0.3,0.1-0.4,0.1
	c-0.2,0-0.4,0.1-0.6,0.1c-0.2,0-0.4,0.1-0.6,0.1c-0.2,0-0.4,0-0.5,0c-0.7,0-1.2-0.1-1.7-0.4s-0.7-0.7-0.9-1.4
	c-0.6,0.6-1.4,1.1-2.4,1.4c-0.9,0.3-1.8,0.4-2.7,0.4c-0.7,0-1.3-0.1-1.9-0.3c-0.6-0.2-1.1-0.4-1.6-0.8c-0.5-0.4-0.8-0.8-1.1-1.3
	s-0.4-1.2-0.4-1.9c0-0.9,0.2-1.7,0.5-2.2c0.3-0.6,0.8-1,1.3-1.3s1.1-0.6,1.8-0.7c0.7-0.1,1.4-0.3,2-0.3c0.6-0.1,1.1-0.2,1.7-0.2
	c0.5,0,1-0.1,1.4-0.2c0.4-0.1,0.7-0.3,1-0.5c0.2-0.2,0.4-0.6,0.4-1.1c0-0.4-0.1-0.8-0.3-1c-0.2-0.3-0.4-0.5-0.7-0.6s-0.6-0.2-1-0.3
	c-0.4,0-0.7-0.1-1-0.1c-0.9,0-1.7,0.2-2.3,0.6c-0.6,0.4-0.9,1-1,1.8h-3.2c0.1-0.9,0.3-1.7,0.7-2.4c0.4-0.6,0.9-1.1,1.5-1.5
	s1.3-0.6,2.1-0.8s1.6-0.2,2.4-0.2c0.7,0,1.4,0.1,2.1,0.2c0.7,0.2,1.3,0.4,1.9,0.7c0.6,0.3,1,0.8,1.4,1.3c0.3,0.5,0.5,1.2,0.5,2V55.3
	z M213.3,51.2c-0.5,0.3-1.1,0.5-1.8,0.6s-1.4,0.2-2.2,0.3c-0.3,0.1-0.7,0.1-1,0.2c-0.3,0.1-0.6,0.2-0.9,0.4
	c-0.2,0.2-0.4,0.4-0.6,0.7c-0.1,0.3-0.2,0.7-0.2,1.1c0,0.4,0.1,0.7,0.3,0.9s0.5,0.4,0.8,0.6c0.3,0.1,0.6,0.2,1,0.3s0.7,0.1,1,0.1
	c0.4,0,0.8,0,1.2-0.1s0.8-0.3,1.2-0.5s0.7-0.5,0.9-0.9s0.4-0.8,0.4-1.3L213.3,51.2L213.3,51.2z"/>
<path d="M220.1,38.2h3.2v3.1h-3.2V38.2z M220.1,43.8h3.2v14.7h-3.2V43.8z"/>
<path d="M235,38.2h3.6v11.9c0,0.7,0,1.4,0.1,2.1s0.3,1.3,0.6,1.9s0.8,1,1.4,1.4c0.6,0.4,1.5,0.5,2.7,0.5s2.1-0.2,2.7-0.5
	c0.6-0.4,1.1-0.8,1.4-1.4c0.3-0.6,0.5-1.2,0.6-1.9s0.1-1.4,0.1-2.1V38.2h3.6v13c0,1.3-0.2,2.5-0.6,3.4c-0.4,1-1,1.8-1.7,2.4
	c-0.7,0.7-1.6,1.1-2.6,1.5c-1,0.3-2.2,0.5-3.4,0.5c-1.3,0-2.4-0.2-3.4-0.5s-1.9-0.8-2.6-1.5c-0.7-0.7-1.3-1.5-1.7-2.4
	c-0.4-1-0.6-2.1-0.6-3.4v-13H235z"/>
<path d="M255.4,43.8h3.1V46l0.1,0.1c0.5-0.8,1.1-1.5,1.9-1.9c0.8-0.5,1.7-0.7,2.7-0.7c1.6,0,2.9,0.4,3.8,1.3
	c0.9,0.8,1.4,2.1,1.4,3.8v10.1h-3.2v-9.3c0-1.2-0.3-2-0.7-2.5c-0.5-0.5-1.2-0.8-2.1-0.8c-0.6,0-1,0.1-1.5,0.3
	c-0.4,0.2-0.8,0.5-1.1,0.8c-0.3,0.3-0.5,0.8-0.7,1.2c-0.2,0.5-0.3,1-0.3,1.5v8.7h-3.4V43.8z"/>
<path d="M271.8,38.2h3.2v3.1h-3.2V38.2z M271.8,43.8h3.2v14.7h-3.2V43.8z"/>
<path d="M277.2,43.8h3.5l3.7,11.3h0.1l3.6-11.3h3.4l-5.3,14.7h-3.6L277.2,43.8z"/>
<path d="M295.9,52c0,0.6,0.1,1.1,0.2,1.7c0.2,0.5,0.4,1,0.7,1.4c0.3,0.4,0.7,0.7,1.2,1c0.5,0.2,1.1,0.4,1.8,0.4c1,0,1.7-0.2,2.3-0.6
	s1-1,1.3-1.8h3.1c-0.2,0.8-0.5,1.5-0.9,2.1s-0.9,1.2-1.5,1.6s-1.2,0.8-2,1s-1.5,0.3-2.3,0.3c-1.2,0-2.2-0.2-3.1-0.6
	c-0.9-0.4-1.6-0.9-2.3-1.6c-0.6-0.7-1.1-1.5-1.4-2.5c-0.3-0.9-0.5-2-0.5-3.1c0-1,0.2-2,0.5-3c0.3-0.9,0.8-1.8,1.4-2.5
	s1.4-1.3,2.2-1.7c0.9-0.4,1.9-0.6,3-0.6c1.2,0,2.2,0.2,3.1,0.7s1.7,1.1,2.3,1.9s1,1.7,1.3,2.8c0.3,1,0.3,2.1,0.2,3.2h-10.6V52z
	 M303.5,49.9c0-0.5-0.1-1-0.3-1.5c-0.2-0.5-0.4-0.9-0.7-1.2c-0.3-0.4-0.7-0.6-1.1-0.9c-0.4-0.2-0.9-0.3-1.5-0.3s-1.1,0.1-1.6,0.3
	s-0.9,0.5-1.2,0.8s-0.6,0.8-0.8,1.2c-0.2,0.5-0.3,1-0.3,1.5h7.5V49.9z"/>
<path d="M309.3,43.8h3.1v2.9h0.1c0.1-0.4,0.3-0.8,0.6-1.2s0.6-0.7,1-1s0.8-0.6,1.3-0.8s1-0.3,1.5-0.3c0.4,0,0.6,0,0.8,0
	c0.1,0,0.3,0,0.4,0.1v3.1c-0.2,0-0.5-0.1-0.7-0.1s-0.5,0-0.7,0c-0.6,0-1.1,0.1-1.6,0.3s-0.9,0.5-1.3,1c-0.4,0.4-0.6,1-0.9,1.6
	c-0.2,0.6-0.3,1.3-0.3,2.2v7h-3.2L309.3,43.8L309.3,43.8z"/>
<path d="M321.7,53.8c0.1,1,0.5,1.6,1.1,2s1.4,0.6,2.3,0.6c0.3,0,0.7,0,1-0.1c0.4,0,0.8-0.1,1.1-0.3c0.3-0.1,0.6-0.3,0.8-0.6
	s0.3-0.6,0.3-1s-0.2-0.8-0.5-1s-0.7-0.5-1.1-0.6c-0.4-0.2-1-0.3-1.5-0.4c-0.6-0.1-1.1-0.2-1.7-0.4c-0.6-0.1-1.2-0.3-1.8-0.5
	c-0.6-0.2-1.1-0.4-1.5-0.8c-0.4-0.3-0.8-0.7-1.1-1.2c-0.3-0.5-0.4-1.1-0.4-1.9c0-0.8,0.2-1.5,0.6-2s0.9-1,1.5-1.3s1.3-0.6,2-0.7
	c0.7-0.1,1.4-0.2,2.1-0.2c0.8,0,1.5,0.1,2.2,0.2c0.7,0.2,1.3,0.4,1.9,0.8s1,0.8,1.4,1.4c0.4,0.6,0.6,1.3,0.7,2.1h-3.4
	c-0.2-0.8-0.5-1.3-1.1-1.6s-1.2-0.4-1.9-0.4c-0.2,0-0.5,0-0.8,0.1c-0.3,0-0.6,0.1-0.9,0.2c-0.3,0.1-0.5,0.3-0.7,0.5
	s-0.3,0.5-0.3,0.8c0,0.4,0.1,0.7,0.4,1c0.3,0.2,0.6,0.5,1.1,0.6c0.4,0.2,1,0.3,1.5,0.4c0.6,0.1,1.2,0.2,1.8,0.4
	c0.6,0.1,1.2,0.3,1.7,0.5c0.6,0.2,1.1,0.4,1.5,0.8c0.4,0.3,0.8,0.7,1.1,1.2c0.3,0.5,0.4,1.1,0.4,1.8c0,0.9-0.2,1.6-0.6,2.2
	c-0.4,0.6-0.9,1.1-1.6,1.5c-0.6,0.4-1.3,0.7-2.1,0.8c-0.8,0.2-1.5,0.3-2.3,0.3c-0.9,0-1.8-0.1-2.6-0.3s-1.5-0.5-2.1-1
	c-0.6-0.4-1-1-1.4-1.6c-0.3-0.6-0.5-1.4-0.5-2.3H321.7z"/>
<path d="M334.2,38.2h3.2v3.1h-3.2V38.2z M334.2,43.8h3.2v14.7h-3.2V43.8z"/>
<path d="M339.5,43.8h2.5v-4.4h3.2v4.4h2.9v2.4h-2.9v7.9c0,0.3,0,0.6,0,0.9c0,0.2,0.1,0.5,0.2,0.6s0.3,0.3,0.5,0.4s0.5,0.1,0.9,0.1
	c0.2,0,0.5,0,0.7,0s0.5,0,0.7-0.1v2.5c-0.4,0-0.7,0.1-1.1,0.1c-0.3,0-0.7,0.1-1.1,0.1c-0.9,0-1.5-0.1-2.1-0.2
	c-0.5-0.2-0.9-0.4-1.2-0.7c-0.3-0.3-0.5-0.7-0.6-1.2s-0.2-1-0.2-1.6v-8.7h-2.5v-2.5H339.5z"/>
<path d="M348.8,43.8h3.6l3.8,11h0.1l3.7-11h3.4l-5.7,15.5c-0.3,0.7-0.5,1.3-0.8,1.9c-0.3,0.6-0.6,1.1-0.9,1.6
	c-0.4,0.5-0.8,0.8-1.4,1.1s-1.3,0.4-2.1,0.4c-0.8,0-1.5-0.1-2.3-0.2v-2.7c0.3,0,0.5,0.1,0.8,0.1c0.2,0,0.5,0.1,0.8,0.1
	c0.4,0,0.7,0,0.9-0.1c0.2-0.1,0.5-0.2,0.6-0.4c0.2-0.2,0.3-0.4,0.4-0.6c0.1-0.2,0.2-0.5,0.3-0.9l0.4-1.1L348.8,43.8z"/>
<path d="M124.3,66.1h3.6v20.4h-3.6V66.1z"/>
<path d="M131.8,71.8h3.1V74l0.1,0.1c0.5-0.8,1.1-1.5,1.9-1.9c0.8-0.5,1.7-0.7,2.7-0.7c1.6,0,2.9,0.4,3.8,1.3
	c0.9,0.8,1.4,2.1,1.4,3.8v10.1h-3.2v-9.3c0-1.2-0.3-2-0.7-2.5s-1.2-0.8-2.1-0.8c-0.6,0-1,0.1-1.5,0.3c-0.4,0.2-0.8,0.5-1.1,0.8
	c-0.3,0.4-0.5,0.8-0.7,1.2c-0.2,0.5-0.3,1-0.3,1.5v8.7H132V71.8H131.8z"/>
<path d="M146.7,71.8h2.5v-4.4h3.2v4.4h2.9v2.4h-2.9v7.9c0,0.3,0,0.6,0,0.9c0,0.2,0.1,0.5,0.2,0.6c0.1,0.2,0.3,0.3,0.5,0.4
	s0.5,0.1,0.9,0.1c0.2,0,0.5,0,0.7,0s0.5,0,0.7-0.1v2.5c-0.4,0-0.7,0.1-1.1,0.1c-0.3,0-0.7,0.1-1.1,0.1c-0.9,0-1.5-0.1-2.1-0.2
	c-0.5-0.2-0.9-0.4-1.2-0.7c-0.3-0.3-0.5-0.7-0.6-1.2c-0.1-0.5-0.2-1-0.2-1.6v-8.7h-2.5v-2.5H146.7z"/>
<path d="M160.2,80c0,0.6,0.1,1.1,0.2,1.7c0.2,0.5,0.4,1,0.7,1.4s0.7,0.7,1.2,1c0.5,0.2,1.1,0.4,1.8,0.4c1,0,1.7-0.2,2.3-0.6
	s1-1,1.3-1.8h3.1c-0.2,0.8-0.5,1.5-0.9,2.1s-0.9,1.2-1.5,1.6s-1.2,0.8-2,1c-0.7,0.2-1.5,0.3-2.3,0.3c-1.2,0-2.2-0.2-3.1-0.6
	c-0.9-0.4-1.6-0.9-2.3-1.6c-0.6-0.7-1.1-1.5-1.4-2.5c-0.3-1-0.5-2-0.5-3.1c0-1,0.2-2,0.5-3c0.3-0.9,0.8-1.8,1.4-2.5
	c0.6-0.7,1.4-1.3,2.2-1.7c0.9-0.4,1.9-0.6,3-0.6c1.2,0,2.2,0.2,3.1,0.7s1.7,1.1,2.3,1.9s1,1.7,1.3,2.8c0.3,1,0.3,2.1,0.2,3.2h-10.6
	V80z M167.8,77.8c0-0.5-0.1-1-0.3-1.5s-0.4-0.9-0.7-1.2c-0.3-0.4-0.7-0.6-1.1-0.9c-0.4-0.2-0.9-0.3-1.5-0.3s-1.1,0.1-1.6,0.3
	c-0.5,0.2-0.9,0.5-1.2,0.8s-0.6,0.8-0.8,1.2c-0.2,0.5-0.3,1-0.3,1.5L167.8,77.8L167.8,77.8z"/>
<path d="M173.5,71.8h3v2.9h0.1c0.1-0.4,0.3-0.8,0.6-1.2c0.3-0.4,0.6-0.7,1-1s0.8-0.6,1.3-0.8c0.5-0.2,1-0.3,1.5-0.3
	c0.4,0,0.6,0,0.8,0c0.1,0,0.3,0,0.4,0.1v3.1c-0.2,0-0.5-0.1-0.7-0.1s-0.5,0-0.7,0c-0.6,0-1.1,0.1-1.6,0.3c-0.5,0.2-0.9,0.5-1.3,1
	c-0.4,0.4-0.6,1-0.9,1.6c-0.2,0.6-0.3,1.3-0.3,2.2v7h-3.2L173.5,71.8L173.5,71.8z"/>
<path d="M184.1,71.8h3.1V74l0.1,0.1c0.5-0.8,1.1-1.5,1.9-1.9c0.8-0.5,1.7-0.7,2.7-0.7c1.6,0,2.9,0.4,3.8,1.3
	c0.9,0.8,1.4,2.1,1.4,3.8v10.1h-3.2v-9.3c0-1.2-0.3-2-0.7-2.5s-1.2-0.8-2.1-0.8c-0.6,0-1,0.1-1.5,0.3c-0.4,0.2-0.8,0.5-1.1,0.8
	c-0.3,0.4-0.5,0.8-0.7,1.2c-0.2,0.5-0.3,1-0.3,1.5v8.7h-3.2V71.8H184.1z"/>
<path d="M212.8,83.2c0,0.4,0.1,0.7,0.2,0.9c0.1,0.2,0.3,0.3,0.6,0.3c0.1,0,0.2,0,0.3,0s0.3,0,0.5-0.1v2.3c-0.1,0-0.3,0.1-0.4,0.1
	c-0.2,0-0.4,0.1-0.6,0.1c-0.2,0-0.4,0.1-0.6,0.1c-0.2,0-0.4,0-0.5,0c-0.7,0-1.2-0.1-1.7-0.4c-0.4-0.3-0.7-0.7-0.9-1.4
	c-0.6,0.6-1.4,1.1-2.4,1.4c-0.9,0.3-1.8,0.4-2.7,0.4c-0.7,0-1.3-0.1-1.9-0.3c-0.6-0.2-1.1-0.4-1.6-0.8s-0.8-0.8-1.1-1.3
	s-0.4-1.2-0.4-1.9c0-0.9,0.2-1.7,0.5-2.2c0.3-0.6,0.8-1,1.3-1.3s1.1-0.6,1.8-0.7s1.4-0.3,2-0.3c0.6-0.1,1.1-0.2,1.7-0.2
	c0.5,0,1-0.1,1.4-0.2s0.7-0.3,1-0.5s0.4-0.6,0.4-1.1c0-0.4-0.1-0.8-0.3-1c-0.2-0.3-0.4-0.5-0.7-0.6s-0.6-0.2-1-0.3
	c-0.4,0-0.7-0.1-1-0.1c-0.9,0-1.7,0.2-2.3,0.6s-0.9,1-1,1.8h-3.2c0.1-0.9,0.3-1.7,0.7-2.4c0.4-0.6,0.9-1.1,1.5-1.5s1.3-0.6,2.1-0.8
	c0.8-0.2,1.6-0.2,2.4-0.2c0.7,0,1.4,0.1,2.1,0.2c0.7,0.2,1.3,0.4,1.9,0.7c0.6,0.3,1,0.8,1.4,1.3c0.3,0.5,0.5,1.2,0.5,2V83.2z
	 M209.5,79.1c-0.5,0.3-1.1,0.5-1.8,0.6s-1.4,0.2-2.2,0.3c-0.3,0.1-0.7,0.1-1,0.2s-0.6,0.2-0.9,0.4c-0.2,0.2-0.4,0.4-0.6,0.7
	s-0.2,0.7-0.2,1.1s0.1,0.7,0.3,0.9s0.5,0.4,0.8,0.6c0.3,0.1,0.6,0.2,1,0.3c0.4,0.1,0.7,0.1,1,0.1c0.4,0,0.8,0,1.2-0.1
	s0.8-0.3,1.2-0.5s0.7-0.5,0.9-0.9s0.4-0.8,0.4-1.3L209.5,79.1L209.5,79.1z"/>
<path d="M214.8,71.8h2.5v-4.4h3.2v4.4h2.9v2.4h-2.9v7.9c0,0.3,0,0.6,0,0.9c0,0.2,0.1,0.5,0.2,0.6c0.1,0.2,0.3,0.3,0.5,0.4
	s0.5,0.1,0.9,0.1c0.2,0,0.5,0,0.7,0s0.5,0,0.7-0.1v2.5c-0.4,0-0.7,0.1-1.1,0.1s-0.7,0.1-1.1,0.1c-0.9,0-1.5-0.1-2.1-0.2
	c-0.5-0.2-0.9-0.4-1.2-0.7c-0.3-0.3-0.5-0.7-0.6-1.2s-0.2-1-0.2-1.6v-8.7h-2.5v-2.5H214.8z"/>
<path d="M225.9,66.1h3.2v3.1h-3.2V66.1z M225.9,71.8h3.2v14.7h-3.2V71.8z"/>
<path d="M239.4,86.9c-1.2,0-2.2-0.2-3.1-0.6c-0.9-0.4-1.7-0.9-2.3-1.6s-1.1-1.5-1.5-2.5c-0.3-0.9-0.5-2-0.5-3.1s0.2-2.2,0.5-3.1
	c0.3-1,0.8-1.8,1.5-2.5c0.6-0.7,1.4-1.2,2.3-1.6c0.9-0.4,2-0.6,3.1-0.6s2.2,0.2,3.2,0.6c0.9,0.4,1.7,0.9,2.3,1.6s1.1,1.5,1.5,2.5
	c0.3,1,0.5,2,0.5,3.1s-0.2,2.2-0.5,3.1c-0.3,1-0.8,1.8-1.5,2.5c-0.6,0.7-1.4,1.2-2.3,1.6C241.6,86.7,240.6,86.9,239.4,86.9z
	 M239.4,84.3c0.7,0,1.3-0.2,1.9-0.5c0.5-0.3,1-0.7,1.3-1.2s0.6-1,0.8-1.7c0.2-0.6,0.2-1.2,0.2-1.9c0-0.6-0.1-1.3-0.2-1.9
	s-0.4-1.2-0.8-1.7c-0.3-0.5-0.8-0.9-1.3-1.2c-0.5-0.3-1.2-0.5-1.9-0.5s-1.3,0.2-1.9,0.5c-0.5,0.3-1,0.7-1.3,1.2s-0.6,1-0.8,1.7
	c-0.2,0.6-0.2,1.3-0.2,1.9s0.1,1.3,0.2,1.9c0.2,0.6,0.4,1.2,0.8,1.7c0.3,0.5,0.8,0.9,1.3,1.2C238,84.2,238.7,84.3,239.4,84.3z"/>
<path d="M249.5,71.8h3.1V74l0.1,0.1c0.5-0.8,1.1-1.5,1.9-1.9c0.8-0.5,1.7-0.7,2.7-0.7c1.6,0,2.9,0.4,3.8,1.3
	c0.9,0.8,1.4,2.1,1.4,3.8v10.1h-3.2v-9.3c0-1.2-0.3-2-0.7-2.5c-0.5-0.5-1.2-0.8-2.1-0.8c-0.6,0-1,0.1-1.5,0.3
	c-0.4,0.2-0.8,0.5-1.1,0.8s-0.5,0.8-0.7,1.2s-0.3,1-0.3,1.5v8.7h-3.2V71.8H249.5z"/>
<path d="M278.2,83.2c0,0.4,0.1,0.7,0.2,0.9c0.1,0.2,0.3,0.3,0.6,0.3c0.1,0,0.2,0,0.3,0c0.1,0,0.3,0,0.5-0.1v2.3
	c-0.1,0-0.3,0.1-0.4,0.1c-0.2,0-0.4,0.1-0.6,0.1c-0.2,0-0.4,0.1-0.6,0.1c-0.2,0-0.4,0-0.5,0c-0.7,0-1.2-0.1-1.7-0.4
	c-0.4-0.3-0.7-0.7-0.9-1.4c-0.6,0.6-1.4,1.1-2.4,1.4c-0.9,0.3-1.8,0.4-2.7,0.4c-0.7,0-1.3-0.1-1.9-0.3c-0.6-0.2-1.1-0.4-1.6-0.8
	s-0.8-0.8-1.1-1.3c-0.3-0.5-0.4-1.2-0.4-1.9c0-0.9,0.2-1.7,0.5-2.2c0.3-0.6,0.8-1,1.3-1.3s1.1-0.6,1.8-0.7c0.7-0.1,1.4-0.3,2-0.3
	c0.6-0.1,1.1-0.2,1.7-0.2c0.6,0,1-0.1,1.4-0.2s0.7-0.3,1-0.5c0.3-0.2,0.4-0.6,0.4-1.1c0-0.4-0.1-0.8-0.3-1c-0.2-0.3-0.4-0.5-0.7-0.6
	c-0.3-0.1-0.6-0.2-1-0.3c-0.4,0-0.7-0.1-1-0.1c-0.9,0-1.7,0.2-2.3,0.6s-0.9,1-1,1.8h-3.2c0.1-0.9,0.3-1.7,0.7-2.4s0.9-1.1,1.5-1.5
	s1.3-0.6,2.1-0.8c0.8-0.2,1.6-0.2,2.4-0.2c0.7,0,1.4,0.1,2.1,0.2c0.7,0.2,1.3,0.4,1.9,0.7c0.6,0.3,1,0.8,1.4,1.3
	c0.3,0.5,0.5,1.2,0.5,2V83.2L278.2,83.2z M275,79.1c-0.5,0.3-1.1,0.5-1.8,0.6c-0.7,0.1-1.4,0.2-2.2,0.3c-0.3,0.1-0.7,0.1-1,0.2
	c-0.3,0.1-0.6,0.2-0.9,0.4c-0.2,0.2-0.4,0.4-0.6,0.7s-0.2,0.7-0.2,1.1s0.1,0.7,0.3,0.9c0.2,0.2,0.5,0.4,0.8,0.6
	c0.3,0.2,0.6,0.2,1,0.3c0.4,0.1,0.7,0.1,1,0.1c0.4,0,0.8,0,1.2-0.1s0.8-0.3,1.2-0.5s0.7-0.5,0.9-0.9c0.2-0.4,0.4-0.8,0.4-1.3v-2.4
	H275z"/>
<path d="M281.8,66.1h3.2v20.4h-3.2V66.1z"/>
<path d="M310.7,72.6c-0.2-0.6-0.4-1.1-0.6-1.6c-0.3-0.5-0.6-0.9-1-1.3c-0.4-0.4-0.9-0.6-1.5-0.8s-1.2-0.3-2-0.3
	c-1.1,0-2,0.2-2.8,0.7c-0.8,0.4-1.4,1-1.9,1.8c-0.5,0.8-0.9,1.6-1.1,2.5c-0.2,0.9-0.4,1.9-0.4,2.9s0.1,1.9,0.4,2.9s0.6,1.8,1.1,2.5
	s1.1,1.3,1.9,1.8c0.8,0.4,1.7,0.7,2.8,0.7c0.8,0,1.5-0.1,2.1-0.4s1.1-0.7,1.6-1.1c0.4-0.5,0.8-1.1,1-1.7s0.4-1.3,0.5-2.1h3.5
	c-0.1,1.2-0.3,2.3-0.8,3.3c-0.4,1-1.1,1.9-1.8,2.6s-1.7,1.3-2.7,1.7s-2.2,0.6-3.4,0.6c-1.5,0-2.9-0.3-4.1-0.8
	c-1.2-0.6-2.2-1.3-3.1-2.3c-0.8-1-1.5-2.1-1.9-3.4s-0.7-2.7-0.7-4.1s0.2-2.8,0.7-4.1c0.4-1.3,1.1-2.4,1.9-3.4s1.9-1.7,3.1-2.3
	c1.2-0.6,2.6-0.9,4.1-0.9c1.1,0,2.2,0.2,3.2,0.5c1,0.3,1.9,0.8,2.7,1.4c0.8,0.6,1.4,1.3,1.9,2.2s0.8,1.8,0.9,2.9h-3.6V72.6z"/>
<path d="M323.9,86.9c-1.2,0-2.2-0.2-3.1-0.6s-1.7-0.9-2.3-1.6c-0.6-0.7-1.1-1.5-1.5-2.5c-0.3-0.9-0.5-2-0.5-3.1s0.2-2.2,0.5-3.1
	c0.3-1,0.8-1.8,1.5-2.5c0.6-0.7,1.4-1.2,2.3-1.6s2-0.6,3.1-0.6s2.2,0.2,3.2,0.6c0.9,0.4,1.7,0.9,2.3,1.6c0.6,0.7,1.1,1.5,1.5,2.5
	c0.3,1,0.5,2,0.5,3.1s-0.2,2.2-0.5,3.1c-0.3,1-0.8,1.8-1.5,2.5c-0.6,0.7-1.4,1.2-2.3,1.6C326.1,86.7,325.1,86.9,323.9,86.9z
	 M323.9,84.3c0.7,0,1.3-0.2,1.9-0.5c0.5-0.3,1-0.7,1.3-1.2s0.6-1,0.8-1.7c0.2-0.6,0.2-1.2,0.2-1.9c0-0.6-0.1-1.3-0.2-1.9
	s-0.4-1.2-0.8-1.7c-0.3-0.5-0.8-0.9-1.3-1.2c-0.5-0.3-1.2-0.5-1.9-0.5s-1.3,0.2-1.9,0.5c-0.5,0.3-1,0.7-1.3,1.2s-0.6,1-0.8,1.7
	c-0.2,0.6-0.2,1.3-0.2,1.9s0.1,1.3,0.2,1.9c0.2,0.6,0.4,1.2,0.8,1.7c0.3,0.5,0.8,0.9,1.3,1.2C322.5,84.2,323.2,84.3,323.9,84.3z"/>
<path d="M334.1,66.1h3.2v20.4h-3.2V66.1z"/>
<path d="M341,66.1h3.2v20.4H341V66.1z"/>
<path d="M350.3,80c0,0.6,0.1,1.1,0.2,1.7c0.2,0.5,0.4,1,0.7,1.4c0.3,0.4,0.7,0.7,1.2,1c0.5,0.2,1.1,0.4,1.8,0.4
	c0.9,0,1.7-0.2,2.3-0.6c0.6-0.4,1-1,1.3-1.8h3.1c-0.2,0.8-0.5,1.5-0.9,2.1s-0.9,1.2-1.5,1.6s-1.2,0.8-2,1c-0.7,0.2-1.5,0.3-2.3,0.3
	c-1.2,0-2.2-0.2-3.1-0.6s-1.6-0.9-2.3-1.6c-0.6-0.7-1.1-1.5-1.4-2.5s-0.5-2-0.5-3.1c0-1,0.2-2,0.5-3c0.3-0.9,0.8-1.8,1.4-2.5
	s1.4-1.3,2.2-1.7c0.8-0.4,1.9-0.6,3-0.6c1.2,0,2.2,0.2,3.1,0.7s1.7,1.1,2.3,1.9c0.6,0.8,1,1.7,1.3,2.8c0.3,1,0.3,2.1,0.2,3.2h-10.6
	V80z M357.9,77.8c0-0.5-0.1-1-0.3-1.5c-0.2-0.5-0.4-0.9-0.7-1.2c-0.3-0.4-0.7-0.6-1.1-0.9c-0.4-0.2-0.9-0.3-1.5-0.3
	s-1.1,0.1-1.6,0.3c-0.5,0.2-0.9,0.5-1.2,0.8s-0.6,0.8-0.8,1.2s-0.3,1-0.3,1.5L357.9,77.8L357.9,77.8z"/>
<path d="M377.2,85.7c0,2.2-0.6,3.9-1.9,5c-1.2,1.1-3,1.6-5.4,1.6c-0.7,0-1.5-0.1-2.2-0.2c-0.8-0.2-1.4-0.4-2.1-0.8
	c-0.6-0.4-1.1-0.8-1.6-1.4s-0.7-1.3-0.7-2.2h3.2c0.1,0.5,0.3,0.8,0.5,1.1c0.2,0.3,0.5,0.5,0.8,0.7s0.7,0.3,1,0.3
	c0.4,0,0.8,0.1,1.2,0.1c1.3,0,2.3-0.3,2.9-1c0.6-0.6,0.9-1.6,0.9-2.8v-2.3h-0.1c-0.5,0.8-1.1,1.5-1.9,1.9c-0.8,0.5-1.6,0.7-2.6,0.7
	c-1.2,0-2.2-0.2-3-0.6s-1.5-1-2.1-1.7s-0.9-1.5-1.2-2.5c-0.2-0.9-0.4-1.9-0.4-3c0-1,0.2-1.9,0.5-2.8s0.7-1.7,1.3-2.4
	c0.6-0.7,1.3-1.2,2.1-1.6c0.8-0.4,1.8-0.6,2.8-0.6c0.9,0,1.8,0.2,2.6,0.6c0.8,0.4,1.4,1,1.8,1.8h0.1v-2h3.2v14.1H377.2z M370,83.9
	c0.7,0,1.3-0.1,1.8-0.4s0.9-0.7,1.2-1.2c0.3-0.5,0.5-1,0.7-1.7c0.1-0.6,0.2-1.2,0.2-1.9s-0.1-1.2-0.2-1.8c-0.2-0.6-0.4-1.1-0.7-1.6
	s-0.7-0.8-1.2-1.1c-0.5-0.3-1.1-0.4-1.8-0.4c-0.7,0-1.3,0.2-1.8,0.5s-0.9,0.7-1.2,1.2c-0.3,0.5-0.5,1-0.7,1.7
	c-0.1,0.6-0.2,1.2-0.2,1.8s0.1,1.2,0.2,1.8c0.2,0.6,0.4,1.1,0.7,1.6c0.3,0.5,0.7,0.8,1.2,1.1C368.8,83.8,369.3,83.9,370,83.9z"/>
<path d="M383.1,80c0,0.6,0.1,1.1,0.2,1.7c0.2,0.5,0.4,1,0.7,1.4c0.3,0.4,0.7,0.7,1.2,1c0.5,0.2,1.1,0.4,1.8,0.4
	c0.9,0,1.7-0.2,2.3-0.6c0.6-0.4,1-1,1.3-1.8h3.1c-0.2,0.8-0.5,1.5-0.9,2.1s-0.9,1.2-1.5,1.6s-1.2,0.8-2,1c-0.7,0.2-1.5,0.3-2.3,0.3
	c-1.2,0-2.2-0.2-3.1-0.6s-1.6-0.9-2.3-1.6c-0.6-0.7-1.1-1.5-1.4-2.5s-0.5-2-0.5-3.1c0-1,0.2-2,0.5-3c0.3-0.9,0.8-1.8,1.4-2.5
	s1.4-1.3,2.2-1.7c0.8-0.4,1.9-0.6,3-0.6c1.2,0,2.2,0.2,3.1,0.7s1.7,1.1,2.3,1.9c0.6,0.8,1,1.7,1.3,2.8c0.3,1,0.3,2.1,0.2,3.2h-10.6
	V80z M390.6,77.8c0-0.5-0.1-1-0.3-1.5c-0.2-0.5-0.4-0.9-0.7-1.2c-0.3-0.4-0.7-0.6-1.1-0.9c-0.4-0.2-0.9-0.3-1.5-0.3
	s-1.1,0.1-1.6,0.3c-0.5,0.2-0.9,0.5-1.2,0.8s-0.6,0.8-0.8,1.2s-0.3,1-0.3,1.5L390.6,77.8L390.6,77.8z"/>
</svg>
