<?xml version="1.0" encoding="utf-8"?>
<!-- Generator: Adobe Illustrator 27.4.1, SVG Export Plug-In . SVG Version: 6.00 Build 0)  -->
<svg version="1.1" id="Layer_1" xmlns="http://www.w3.org/2000/svg" xmlns:xlink="http://www.w3.org/1999/xlink" x="0px" y="0px"
	 viewBox="0 0 311.2 98.5" style="enable-background:new 0 0 311.2 98.5;" xml:space="preserve">
<style type="text/css">
	.st0{font-family:'Roboto-Regular';}
	.st1{font-size:12.8611px;}
	.st2{fill:#3853A3;}
	.st3{fill:#FFF100;}
</style>
<text transform="matrix(1 0 0 1 135.9026 76.0006)" class="st0 st1">TUNGHAI  UNIVERSITY </text>
<g>
	<path class="st2" d="M68.3,23.8c0.4,0,0.8,0,1.2-0.1c0.5-0.2,1-0.3,1.3-0.8c0.2-0.4,0.5-0.8,0.6-1.3c0.3-1,0.8-1.9,1.6-2.5
		s1.6-0.9,2.5-0.8c0.6,0,1.2,0.2,1.8,0.4c1,0.2,1.9-0.1,2.6-0.8c0.3-0.2,0.4-0.6,0.6-0.9c0.4-0.9,1.2-1.3,2-1.7
		c0.7-0.3,1.4-0.2,2-0.2c0.4,0,0.8,0.3,1.2,0.5c0.7,0.3,1.3,0.9,2.1,0.8c0.6-0.1,1.1-0.3,1.6-0.5s0.9-0.6,1.4-1
		c0.6-0.4,1.2-0.7,1.9-0.6c0.6,0.1,1.1,0.2,1.6,0.4c0.4,0.2,0.7,0.5,1,0.8c0.4,0.7,1.1,1.1,1.8,1.3c0.6,0.2,1.3,0.3,1.9,0
		c0.6-0.3,1.3-0.6,1.9-0.8c0.7-0.2,1.3-0.2,2,0c0.8,0.3,1.3,0.8,1.8,1.4c0.3,0.4,0.6,0.9,0.8,1.4c0.5,1.2,1.6,1.6,2.9,1.3
		c1-0.2,2.1-0.5,3,0c0.6,0.3,1.2,0.7,1.5,1.4c0.3,0.9,0.6,1.8,0.9,2.7c0.2,0.7,0.7,1,1.3,1.3c0.7,0.3,1.5,0.3,2.2,0.3
		c0.4,0,0.8,0.2,1.2,0.4c0.3,0.2,0.6,0.5,0.9,0.8c0.6,0.6,0.9,1.2,0.9,2c0,0.7,0,1.4-0.1,2c0,0.8,0.2,1.6,0.8,2.2
		c0.2,0.2,0.5,0.4,0.8,0.6c0.6,0.3,1.2,0.5,1.7,0.8c1,0.6,1.7,1.5,1.6,2.7c0,0.8-0.3,1.6-0.6,2.3c-0.6,1.5-0.4,2.7,0.9,3.7
		c0.7,0.6,1.5,1.2,1.8,2.1c0.3,0.9,0.4,1.9,0.1,2.8c-0.2,0.8-0.8,1.4-1.3,2c-0.6,0.7-0.8,1.5-0.5,2.3c0.3,0.7,0.7,1.4,1.2,2
		c0.6,0.8,0.8,1.7,0.6,2.7c-0.2,1.1-0.7,2.1-1.6,2.8c-0.3,0.3-0.7,0.6-1,0.9c-0.5,0.5-0.7,1.2-0.5,1.9c0.1,0.4,0.2,0.7,0.4,1.1
		c0.8,1.8-0.4,4.7-2.4,5.2c-0.2,0.1-0.4,0.1-0.6,0.2c-1,0.3-1.6,1.3-1.4,2.4c0.3,1.5,0.1,3-1.1,4c-0.5,0.4-1.1,0.7-1.7,0.9
		c-0.5,0.2-1.1,0.2-1.6,0.4c-1,0.3-1.3,1-1.5,1.9c-0.3,1.9-0.9,2.7-2.7,3.3c-0.5,0.2-1.1,0.1-1.7,0c-0.3,0-0.6-0.1-0.9-0.2
		c-0.5-0.1-1.4,0.1-1.6,0.6c-0.2,0.4-0.4,0.9-0.7,1.3c-0.3,0.6-0.6,1.2-1,1.7s-1,0.7-1.6,0.9c-0.9,0.2-1.8-0.1-2.7-0.3
		c-0.8-0.3-1.6-0.8-2.6-0.4c-0.5,0.2-0.9,0.5-1.3,0.8c-0.5,0.4-0.8,0.9-1.3,1.3c-0.9,0.9-2,1.3-3.2,1.1c-0.7-0.1-1.3-0.5-1.8-1
		c-0.4-0.4-0.8-0.8-1.3-1.2c-0.6-0.4-1.8-0.4-2.4,0.2c-0.7,0.7-1.4,1.2-2.3,1.4c-0.6,0.2-1.3,0.1-1.9-0.1c-0.9-0.3-1.5-0.9-1.9-1.7
		c-0.2-0.4-0.5-0.9-0.8-1.3c-0.5-0.6-1.2-0.7-1.9-0.5c-0.7,0.2-1.4,0.5-2.1,0.7c-1.1,0.2-2.1,0.1-3-0.7c-0.5-0.5-1-1.1-1.1-1.8
		c-0.1-0.5-0.3-1.1-0.5-1.6c-0.3-0.7-0.9-1-1.7-1c-0.6,0-1.1,0.1-1.7,0.1c-0.6-0.1-1.2,0-1.8-0.3c-0.7-0.4-1.1-0.8-1.4-1.5
		c-0.3-0.8-0.4-1.6-0.5-2.4c-0.1-1.3-0.9-2.4-2.2-2.8c-0.7-0.2-1.5-0.4-2.2-0.8c-1-0.5-1.4-1.5-1.6-2.6c-0.1-0.8,0.1-1.6,0.4-2.4
		c0.1-0.2,0.1-0.4,0-0.6c-0.2-1.1-0.6-2.2-1.7-2.8c-0.4-0.2-0.8-0.5-1.2-0.7c-0.8-0.4-1.2-1.1-1.5-1.9c-0.3-0.8-0.2-1.7,0.2-2.5
		c0.3-0.7,0.7-1.3,0.9-2c0.2-0.6,0.2-1.3,0-2c-0.2-0.9-0.9-1.5-1.5-2.2c-0.9-1-1.2-2.2-0.7-3.5c0.3-0.7,0.7-1.2,1.3-1.7
		c1-0.8,1.5-1.8,1.3-3.1c-0.1-0.6-0.5-1.1-0.7-1.7c-0.3-0.7-0.6-1.5-0.5-2.3c0.2-1.1,0.7-2,1.6-2.7c0.3-0.2,0.6-0.3,0.9-0.4
		c0.9-0.4,1.5-1.3,1.3-2.2c-0.1-0.7-0.2-1.4-0.2-2.1c0-1.1,0.5-2,1.3-2.7c0.5-0.4,1.1-0.6,1.8-0.8c1-0.3,1.6-0.8,2-1.8
		c0.2-0.7,0.2-1.5,0.4-2.2c0.2-1,0.9-1.6,1.7-2.1C66.9,23.8,67.6,23.7,68.3,23.8z M88.6,17.9L88.6,17.9c-1,0.1-2,0.1-2.9,0.3
		c-1.3,0.2-2.5,0.6-3.7,0.9c-1.6,0.5-3.2,1-4.7,1.8c-0.8,0.4-1.6,0.8-2.4,1.2c-2.4,1.4-4.5,3-6.5,4.9c-1.6,1.6-3.1,3.3-4.4,5.1
		c-0.6,0.9-1.3,1.9-1.9,2.8c0,0,0,0.1-0.1,0.1c-0.1,0.3-0.3,0.7-0.4,1c-0.2,0.5-0.5,1-0.7,1.5c-0.2,0.4-0.3,0.8-0.5,1.2
		c-0.2,0.5-0.5,1-0.6,1.5c-0.6,2.1-1.3,4.2-1.6,6.4c-0.1,0.8-0.2,1.6-0.3,2.5c-0.1,0.6-0.1,1.2-0.1,1.8c0,0.8-0.1,1.7,0,2.5
		c0,0.8,0.1,1.6,0.2,2.4c0.1,0.7,0.2,1.5,0.3,2.2c0.1,0.8,0.3,1.6,0.5,2.3c0.4,1.3,0.8,2.6,1.2,3.9c0.2,0.7,0.6,1.4,0.9,2.2
		c0.2,0.6,0.5,1.1,0.8,1.6c0.4,0.7,0.8,1.4,1.3,2.1c0.5,0.8,1,1.6,1.5,2.3c0.8,1.1,1.7,2.1,2.6,3.1c0.5,0.5,0.9,1,1.4,1.5
		c1,0.8,2,1.6,3,2.4c0.4,0.4,0.9,0.7,1.4,1c0.7,0.4,1.4,0.9,2.1,1.3c1,0.4,1.9,0.9,2.8,1.4c0.3,0.2,0.7,0.3,1.1,0.4
		c0.9,0.3,1.8,0.7,2.8,1c0.8,0.2,1.6,0.4,2.5,0.6c0.5,0.1,1.1,0.3,1.6,0.3c0.5,0.1,1,0.1,1.6,0.2c0.9,0.1,1.9,0.2,2.8,0.3
		c0.6,0,1.3,0,1.9-0.1c1.3-0.1,2.5-0.2,3.8-0.3c0.9-0.1,1.9-0.3,2.8-0.5c1.1-0.3,2.1-0.6,3.2-1c0.9-0.3,1.7-0.6,2.6-1
		c0.7-0.3,1.2-0.7,1.9-1c1.2-0.6,2.3-1.2,3.4-2c1.3-1,2.6-2,3.9-3.1c0.5-0.4,0.9-0.8,1.3-1.2c0.5-0.5,0.9-1,1.4-1.6
		c0.4-0.5,0.9-0.9,1.2-1.4c0.5-0.7,1-1.4,1.4-2.2c0.5-0.8,0.9-1.5,1.4-2.3c0.4-0.7,0.8-1.4,1.2-2.2c1-2.2,1.9-4.6,2.3-7
		c0.2-1.2,0.4-2.4,0.6-3.6c0.2-1.4,0.3-2.8,0.2-4.2c0-0.6,0-1.1,0-1.7c-0.1-0.9-0.2-1.7-0.3-2.6c-0.1-0.9-0.3-1.9-0.5-2.8
		c-0.3-1.3-0.6-2.6-1-3.9c-0.3-1-0.8-2-1.2-3c-0.5-1.2-1.1-2.3-1.7-3.4c-0.5-0.9-1.1-1.7-1.6-2.5c-1.3-1.9-2.9-3.5-4.5-5
		c-0.9-0.8-1.9-1.5-2.8-2.3c-0.4-0.3-0.8-0.5-1.2-0.8c-1.9-1.4-4-2.4-6.2-3.3c-1.2-0.3-2.2-0.5-3.2-0.8c-1.3-0.4-2.6-0.7-4-0.9
		c-1.4-0.2-2.9-0.4-4.3-0.4c-0.6,0-1.2,0-1.7,0c-0.2,0-0.3-0.1-0.5,0C89.5,17.8,89.1,17.8,88.6,17.9z"/>
</g>
<g>
	<path class="st2" d="M62.3,51.9c0-0.8,0-1.4,0-1.9c0.1-0.9,0.2-1.8,0.3-2.8c0.2-1.1,0.4-2.3,0.7-3.4c0.2-0.7,0.4-1.4,0.6-2
		c1.4-4.2,3.7-7.8,6.8-11c3-3.1,6.5-5.3,10.5-6.8c1.5-0.6,3-1,4.5-1.3c1.2-0.2,2.4-0.4,3.6-0.5c1.1,0,2.2-0.1,3.3-0.1
		c1.1,0.1,2.2,0.2,3.3,0.4c2.7,0.4,5.3,1.3,7.8,2.5c4,1.9,7.2,4.6,10,7.9c2.3,2.9,4.1,6.1,5.1,9.6c0.3,1.1,0.7,2.3,0.9,3.5
		c0.3,1.3,0.5,2.5,0.5,3.8c0,0.9,0.1,1.7,0.1,2.6c-0.1,1.3-0.2,2.5-0.4,3.7c-0.2,1.1-0.4,2.2-0.7,3.3c-0.2,0.8-0.5,1.6-0.8,2.3
		c-1.4,3.7-3.3,7-5.9,9.9c-2.5,2.7-5.3,4.8-8.6,6.5c-1.6,0.8-3.3,1.4-5,1.9c-1.4,0.4-2.8,0.7-4.2,0.9c-1.4,0.2-2.9,0.2-4.3,0.1
		c-1.4,0-2.8-0.2-4.2-0.4c-1.9-0.3-3.8-0.8-5.6-1.6c-3.5-1.5-6.7-3.5-9.4-6.2c-2.7-2.7-4.9-5.8-6.4-9.3c-0.4-1-0.9-2-1.2-3.1
		c-0.4-1.4-0.7-2.8-1-4.2C62.3,54.8,62.2,53.2,62.3,51.9z M63.2,51.6c0,0.6,0.1,1.2,0.1,1.7c0.1,0.7,0,1.5,0.2,2.2
		c0.3,1.4,0.6,2.8,0.9,4.2c1.2,4.5,3.5,8.4,6.7,11.8c3.2,3.3,6.9,5.7,11.3,7.2c0.6,0.2,1.2,0.4,1.8,0.5c0.8,0.2,1.6,0.4,2.5,0.5
		c1,0.2,2,0.3,3,0.4c1.1,0.1,2.2,0,3.3,0c0.1,0,0.2,0,0.3,0c1-0.2,2-0.3,3-0.5c0.9-0.2,1.8-0.3,2.7-0.6c1.3-0.4,2.6-0.9,3.8-1.4
		c4.9-2.3,8.9-5.8,11.8-10.4c2-3.1,3.3-6.5,4-10.1c0.4-1.9,0.6-3.9,0.5-5.9c0-0.4,0.1-0.8,0-1.2c-0.1-0.8-0.2-1.6-0.3-2.4
		c-0.1-0.9-0.2-1.8-0.4-2.7c-0.5-1.8-1-3.5-1.8-5.2c-1.3-2.8-2.9-5.4-5-7.6c-2.6-2.8-5.6-5-9.2-6.6c-1.1-0.5-2.2-0.9-3.3-1.3
		c-1.2-0.3-2.4-0.6-3.6-0.8c-0.9-0.2-1.8-0.3-2.7-0.4c-2.1-0.1-4.3-0.1-6.4,0.4c-1.3,0.3-2.5,0.5-3.7,0.9c-3.3,1.1-6.4,2.7-9.1,4.9
		c-2.2,1.8-4.1,3.9-5.7,6.2c-1.9,2.8-3.2,5.8-4,9.1c-0.3,1.2-0.5,2.4-0.7,3.7C63.3,49.5,63.3,50.6,63.2,51.6z"/>
</g>
<g>
	<path class="st2" d="M94.7,81.8c0,0.3,0.1,0.5,0.1,0.8c-0.3,0.1-0.6,0.1-0.9,0.2c-0.6,0.1-1.2,0.1-1.8,0.2c-0.1,0-0.2,0.1-0.3,0.2
		c0.1,0.1,0.2,0.2,0.3,0.2c0.6,0,1.1-0.1,1.7-0.1c0.3,0,0.7-0.1,1,0c0.1,0,0.2,0.1,0.2,0.2c0.1,0.3,0.1,0.7,0.1,1S95,84.9,94.7,85
		c-1,0.1-2,0.2-3,0.3c-0.5,0.1-0.6-0.1-0.5-0.5c0-0.1,0.2-0.3,0.3-0.3c0.8-0.1,1.6-0.2,2.4-0.2c0.1,0,0.2-0.1,0.4-0.1
		c-0.7,0-1.3,0-1.9,0c-0.3,0-0.6,0-0.9,0S91,84.1,91,83.7s0-0.7,0-1.1c0-0.3,0.1-0.3,0.3-0.4c0.4,0,0.8,0,1.2-0.1
		c0.5-0.1,1-0.1,1.5-0.2C94.2,81.8,94.4,81.8,94.7,81.8z"/>
</g>
<g>
	<path class="st2" d="M88.9,84.4c0-0.2,0-0.3,0-0.4c-0.6-0.1-1.2-0.1-1.8-0.2c-0.3,0-0.6,0-0.9-0.1c-0.1,0-0.3-0.2-0.2-0.3
		c0.1-0.5,0.2-1.1,0.3-1.6c1.1,0.1,2.1,0.2,3.1,0.2c0.4,0,0.4,0.2,0.4,0.5c0,0.7-0.1,1.4-0.1,2.1c0,0.5,0,0.5-0.5,0.5
		c-1,0-2-0.1-2.9-0.2c-0.4,0-0.5-0.3-0.4-0.6c0-0.1,0.2-0.2,0.3-0.2C87,84.2,87.9,84.3,88.9,84.4z M88.9,83.2L88.9,83.2
		c0-0.2,0-0.4-0.1-0.4c-0.7-0.1-1.3-0.1-2-0.2c0,0.2,0,0.3,0,0.4C87.5,83.1,88.2,83.1,88.9,83.2z"/>
</g>
<g>
	<path class="st2" d="M96.8,82.8c1-0.2,2-0.4,3.1-0.7c0.1,0.5,0.3,0.9,0.3,1.4c0,0.1-0.1,0.3-0.3,0.3c-1,0.3-2,0.5-3,0.7
		c-0.2,0-0.4,0.1-0.6,0.1c0-0.2,0-0.3,0-0.5c0-0.1,0.1-0.2,0.2-0.3c0.8-0.2,1.7-0.4,2.5-0.6c0.1,0,0.2-0.2,0.3-0.3
		c0,0,0-0.1-0.1-0.1c-0.2,0-0.4,0.1-0.5,0.1c-0.7,0.1-1.4,0.3-2.1,0.4c-0.3,0.1-0.6,0-0.6-0.4c-0.1-0.4-0.1-0.8-0.2-1.2
		c0-0.1,0.1-0.3,0.2-0.3c0.4-0.1,0.8-0.2,1.2-0.3c0.6-0.2,1.2-0.3,1.8-0.5c0.2-0.1,0.4-0.1,0.5,0.2c0,0.3,0,0.4-0.4,0.5
		c-0.3,0-0.7,0.2-1,0.3c-0.4,0.1-0.8,0.2-1.2,0.3C96.6,82.3,96.6,82.3,96.8,82.8z"/>
</g>
<g>
	<path class="st2" d="M84.8,81.8c-0.1,0.4-0.2,0.8-0.3,1.2c-0.1,0.4-0.2,0.9-0.3,1.3c-0.1,0.2-0.2,0.3-0.4,0.2
		c-0.2-0.1-0.4-0.1-0.3-0.4c0.1-0.6,0.3-1.2,0.4-1.8c0.1-0.3,0.1-0.5,0.2-0.8c0-0.1,0.2-0.2,0.3-0.2C84.7,81.4,84.8,81.5,84.8,81.8z
		"/>
</g>
<g>
	<path class="st2" d="M91.3,71.2c-1.1-0.1-2.2-0.1-3.3-0.4c-2.9-0.6-5.6-1.6-8-3.4c-3.2-2.4-5.5-5.4-6.8-9.2
		c-0.4-1.2-0.6-2.5-0.9-3.7C72,53.3,72,52,72.1,50.8c0.1-0.9,0.2-1.9,0.4-2.8c0.3-1.9,0.9-3.6,1.8-5.3c2-3.9,4.9-6.9,9-8.7
		c1.3-0.6,2.7-1,4.1-1.4c0.6-0.2,1.3-0.2,1.9-0.3c0.7-0.1,1.4-0.1,2.1-0.1c1.2,0,2.4,0.1,3.5,0.4c2,0.4,4,1.1,5.8,2.1
		c3.2,1.8,5.7,4.4,7.5,7.7c0.8,1.5,1.4,3.1,1.8,4.7c0.2,0.8,0.3,1.6,0.4,2.4c0.1,0.7,0.2,1.4,0.2,2.1c0,1.1-0.1,2.2-0.3,3.2
		c-0.5,3.4-2,6.5-4.1,9.2c-1.7,2.2-3.9,3.8-6.4,5c-1.1,0.5-2.1,0.9-3.2,1.3c-0.8,0.2-1.6,0.3-2.4,0.5C93,71,92.1,71.1,91.3,71.2z
		 M91.2,68.3c0.8-0.1,1.6-0.1,2.4-0.2c2-0.3,3.9-0.9,5.6-2c1.5-0.9,2.9-2,4.1-3.3c2-2.3,3.3-4.9,3.8-7.9c0.2-0.9,0.3-1.9,0.3-2.9
		c0-0.5,0-1-0.1-1.5c0-1-0.2-2.1-0.5-3.1c-0.7-2.8-2.1-5.2-4.1-7.3c-1.2-1.2-2.6-2.2-4-3.1c-1.3-0.7-2.6-1.2-4.1-1.5
		c-0.8-0.2-1.6-0.3-2.3-0.3c-1-0.1-2-0.1-3,0c-1.1,0.1-2.1,0.3-3.1,0.7c-3,1-5.5,2.7-7.6,5.2C77,43,76,45.2,75.3,47.6
		c-0.3,1.1-0.4,2.3-0.5,3.4c-0.1,1.1,0,2.2,0.2,3.3c0.2,1.5,0.6,3,1.3,4.3c1.9,4,4.8,6.9,8.9,8.5C87.3,67.8,89.2,68.3,91.2,68.3z"/>
</g>
<g>
	<g>
		<path class="st3" d="M106.1,28.5c1,0.9,2,1.7,3,2.5c0.1,0.1,0.3,0.1,0.5,0.1c0.3,0,0.8,0.3,0.9,0.6c0,0.1-0.1,0.3-0.2,0.5
			c0.1,0.2,0.3,0.4,0.5,0.6c0.9,0.9,1.5,1.9,2.2,2.9c0.3,0.4,0.2,0.6-0.6,0.8c-0.3-0.5-0.5-0.9-0.8-1.4c-0.2-0.3-0.5-0.6-0.7-0.8
			c-0.4-0.4-0.8-0.9-1.1-1.3c-0.3-0.4-0.4-0.2-0.7,0.1c0.3,0.4,0.7,0.8,1,1.2c0.5,0.7,1.1,1.5,1.6,2.2c0.2,0.3,0.2,0.5-0.2,0.8
			c-0.8,0.5-1.7,1.1-2.5,1.7c-0.8-1-1.5-2-2.3-3c0,0-0.1,0-0.1,0.1c0.1,0.4,0.1,0.8,0.2,1.3c0.2,0.8,0.6,1.5,1,2.1
			c0.3,0.4,0.1,0.8-0.4,0.8c-0.1,0-0.2-0.1-0.3-0.2c-0.8-1-1.2-2.1-1.4-3.3c-0.3,0-0.5,0.5-0.9,0.2c-0.6-0.4,0-0.7,0.1-1.1
			c-1-0.1-1.8-0.6-2.6-1c-0.3-0.1-0.2-0.4-0.1-0.6c0.2-0.3,0.4-0.3,0.6-0.1c0.4,0.2,0.7,0.4,1.1,0.6c0.5,0.2,1,0.3,1.5,0.3
			c-0.6-1-1.6-1.4-2.3-2.2c0.1-0.2,0.3-0.5,0.4-0.7c0.4-0.6,0.8-1.2,1.2-1.8c0.3-0.4,0.4-0.4,0.8-0.1c0.8,0.6,1.6,1.3,2.3,1.9
			c0.1,0.1,0.2,0.2,0.3,0.2c0.1,0,0.2,0,0.4,0c0-0.1,0-0.3,0-0.4c-0.1-0.2-0.3-0.4-0.5-0.5c-0.8-0.6-1.5-1.2-2.3-1.8
			c-0.4-0.3-0.4-0.5-0.1-0.8C105.9,28.7,105.9,28.6,106.1,28.5z M109.7,37.5c-0.5-0.9-1.1-1.7-1.8-2.5c-0.1-0.1-0.3-0.3-0.5-0.1
			s-0.2,0.3,0,0.6c0.6,0.7,1.1,1.3,1.6,2C109.3,37.7,109.5,37.7,109.7,37.5z M108.3,34.2c0.2,0.3,0.5,0.6,0.7,1
			c0.4,0.5,0.7,1,1.1,1.5c0.1,0.1,0.3,0.1,0.5,0.1c0-0.1,0-0.3,0-0.4c0-0.1-0.1-0.2-0.2-0.3c-0.5-0.6-1-1.3-1.5-1.9
			c-0.1-0.1-0.3-0.2-0.4-0.4c-0.1,0.1-0.2,0.1-0.2,0.2C108.4,34.1,108.3,34.1,108.3,34.2z M107.4,33.3c0.4-0.3,0.4-0.3,0.1-0.6
			c-0.5-0.5-1.1-1-1.6-1.5c-0.1-0.1-0.3,0-0.4,0c-0.1,0.1-0.1,0.4,0,0.5C106.1,32.2,106.8,32.8,107.4,33.3z M104.5,32.6
			C104.5,32.6,104.5,32.7,104.5,32.6c0.7,0.6,1.3,1.1,1.9,1.6c0.1,0,0.3,0,0.3-0.1c0.1-0.1,0.1-0.3,0-0.3c-0.5-0.5-1-1-1.5-1.4
			C104.9,32.1,104.8,32.2,104.5,32.6z"/>
	</g>
</g>
<g>
	<g>
		<path class="st3" d="M96.5,26.5c0.5,0.1,0.9,0.1,1.3,0.2c1.1,0.4,2.2,0.6,3.3,1.2c0.6,0.3,1.3,0.6,1.9,0.9
			c0.3,0.1,0.3,0.4,0.2,0.6c-0.2,0.3-0.4,0.5-0.5,0.8c-0.1,0.1-0.1,0.3,0,0.4c0.1,0.4-0.1,0.6-0.4,0.6c-0.4,0.1-0.3,0.4-0.3,0.6
			c0,0.5-0.2,0.8-0.6,0.8c-0.2,0.4-0.5,0.5-0.9,0.4c-0.3-0.1-0.4-0.3-0.2-0.5c0.3-0.3,0-0.4-0.1-0.5c-0.4-0.2-0.7-0.4-1.1-0.5
			c-0.1,0-0.3,0.1-0.4,0.2c-0.2,0.2-0.3,0.2-0.5,0.1c-0.2-0.2-0.7-0.2-0.4-0.7c-0.5-0.1-1-0.3-1.5-0.4s-0.6-0.2-0.5-0.7
			c0-0.1,0.1-0.3,0.1-0.4c0.1-0.3,0.2-0.6-0.3-0.7c-0.1-0.1-0.1-0.3-0.1-0.4c0-0.2,0.1-0.3,0.1-0.5c0.5,0.1,0.5,0.1,0.6-0.5
			C96.3,27.3,96.4,26.9,96.5,26.5z M99.1,28.3c0,0,0-0.2-0.1-0.2c-0.5-0.2-1-0.4-1.5-0.5c-0.1,0-0.3,0.2-0.3,0.3
			c0,0.2,0,0.4,0.1,0.5c0.5,0.2,1,0.3,1.4,0.4C99,28.9,99.1,28.8,99.1,28.3z M100.2,28.5c-0.2,0.7-0.2,0.8,0.4,1
			c0.2,0.1,0.3,0.2,0.5,0.2c0.1,0.1,0.3,0.2,0.4,0.2c0.2-0.1,0.3-0.2,0.4-0.4c0-0.1,0-0.3-0.1-0.3C101.3,29,100.7,28.8,100.2,28.5z
			 M98.5,30.3c0.1-0.2,0.1-0.4,0.2-0.7c-0.6-0.1-1.1-0.3-1.6-0.4c-0.1,0-0.2,0.1-0.3,0.2s0,0.3,0,0.4c0.3,0.1,0.6,0.2,0.9,0.2
			C97.9,30.2,98.2,30.2,98.5,30.3z M101.2,30.8c-0.2-0.1-0.4-0.3-0.7-0.4c-0.2-0.1-0.5-0.2-0.8-0.2c-0.1,0-0.1,0.3-0.2,0.4
			c0.3,0.2,0.5,0.3,0.8,0.5C100.8,31.4,100.9,31.4,101.2,30.8z"/>
	</g>
</g>
<g>
	<g>
		<path class="st3" d="M83,31.6c0.6-0.3,1.1-0.5,1.6-0.9s0.9-0.8,1.4-1.3c0.4-0.4,0.5-1,0.4-1.6c0-0.2,0-0.5,0-0.7
			c0-0.5-0.1-0.6-0.6-0.5c-0.6,0.1-1.3,0.3-1.9,0.5c-0.8,0.2-1.5,0.5-2.3,0.7c-0.1-0.3-0.2-0.5-0.3-0.8c0.5-0.2,0.9-0.4,1.4-0.5
			c1-0.3,2.1-0.6,3.1-0.9c0.1,0,0.2-0.2,0.2-0.3c0-0.3,0-0.5-0.1-0.9c0.3-0.1,0.7-0.2,1-0.2c0,0.4,0.1,0.8,0.1,1.2
			c0.3,0,0.6-0.1,0.9-0.1c1.2-0.1,2.4-0.2,3.7-0.3c0.3,0,0.4,0.1,0.4,0.4s0.1,0.6-0.4,0.6c-0.8,0-1.6,0-2.3,0.1
			c-0.6,0-1.1,0.1-1.7,0.2c-0.1,0-0.2,0.2-0.2,0.3c0.1,0.5,0.2,1,0.4,1.5c0.5,1.1,1.4,1.6,2.5,1.9c0.4,0.1,0.9,0,1.3,0
			c0.3,0,0.4,0,0.4,0.3c0,0.7-0.1,0.7-0.7,0.7c-1.3,0-2.4-0.4-3.5-1.1c-0.5-0.4-0.5-0.3-0.9,0.1c-0.4,0.5-0.8,1-1.3,1.4
			c-0.7,0.5-1.3,1-2.2,1.2c-0.3,0.1-0.3-0.1-0.4-0.2C83.1,32,83,31.7,83,31.6z"/>
	</g>
</g>
<g>
	<path class="st2" d="M93.5,76c-0.1-0.6-0.1-1.2-0.2-1.7c0-0.5-0.1-0.9-0.1-1.4c0-0.3,0.3-0.6,0.6-0.6c0.3,0,0.4,0.3,0.4,0.6
		c0.1,0.9,0.2,1.8,0.2,2.7c0.1,0.9,0.2,1.8,0.2,2.7c0,0.3,0,0.5-0.3,0.6C94,79,93.7,79,93.5,78.6c-0.4-0.7-0.8-1.5-1.2-2.3
		c-0.2-0.3-0.3-0.6-0.5-0.9h-0.1c0,0.1,0,0.2,0,0.3c0,0.9-0.1,1.8-0.1,2.7c0,0.4-0.3,0.4-0.6,0.4c-0.2,0-0.5-0.3-0.5-0.6
		c0.1-1.3,0.2-2.6,0.2-3.8c0-0.6,0-1.2,0-1.9c0-0.2,0.2-0.4,0.4-0.5c0.1,0,0.4,0.1,0.5,0.2c0.2,0.3,0.3,0.7,0.5,1
		c0.4,0.8,0.8,1.7,1.2,2.5C93.4,76.1,93.5,76.1,93.5,76z"/>
</g>
<g>
	<path class="st2" d="M69.8,61.6c0.4-0.1,0.7-0.2,1.1-0.4c0.5-0.2,0.9-0.4,1.4-0.6c0.2-0.1,0.5-0.1,0.6,0s0.2,0.4,0.2,0.6
		c0,0-0.1,0.1-0.1,0.2c-0.4,0.2-0.9,0.4-1.3,0.6c-0.9,0.4-1.9,0.8-2.8,1.2c-0.3,0.1-0.6,0.2-0.9,0.4c-0.3,0.1-0.5,0-0.7-0.2
		c-0.2-0.2-0.2-0.5,0-0.7c0.2-0.3,0.4-0.6,0.6-0.8c0.5-0.5,0.9-1,1.4-1.5c0.1-0.1,0.2-0.2,0.3-0.4c-0.2,0-0.3,0-0.4,0
		c-0.7,0.2-1.4,0.5-2,0.8c-0.4,0.1-0.8,0.1-0.9-0.1c-0.3-0.5-0.2-0.8,0.6-1c1.1-0.4,2.3-0.7,3.4-1c0.4-0.1,0.8-0.3,1.2-0.4
		c0.2,0,0.4,0,0.6,0.1c0.2,0.2,0.2,0.5,0,0.7c-0.4,0.5-0.9,1-1.4,1.5c-0.3,0.3-0.5,0.6-0.8,0.9C69.7,61.5,69.7,61.6,69.8,61.6z"/>
</g>
<g>
	<path class="st2" d="M108.2,68.5c0,0.1,0,0.2-0.1,0.3c-0.2,0.3,0,0.5,0.3,0.6c0.4,0.2,0.9,0.4,1.3,0.6c0.4,0.2,0.5,0.7,0.2,1.1
		c-0.2,0.2-0.6,0.2-1,0c-0.4-0.3-0.8-0.5-1.2-0.8c-0.2-0.2-0.4-0.1-0.6,0.1c-0.5,0.5-0.5,0.5-0.1,1.1c0.3,0.4,0.5,0.8,0.8,1.2
		c0.2,0.3,0,0.5-0.3,0.6c-0.2,0.1-0.5,0.2-0.7-0.1c-1-1.5-2.1-2.9-3.1-4.4c-0.3-0.4-0.2-0.7,0.2-1c0.4-0.4,0.8-0.7,1.2-1.1
		c0.4-0.4,1-0.4,1.4-0.3C107.6,66.7,108.1,67.4,108.2,68.5z M104.9,68.5c0.2,0.4,0.4,0.7,0.6,1c0.3,0.4,0.4,0.4,0.8,0.1
		c0.6-0.4,0.7-0.9,0.6-1.5c-0.1-0.5-0.7-0.8-1.1-0.5C105.5,67.9,105.2,68.2,104.9,68.5z"/>
</g>
<g>
	<g>
		<path class="st3" d="M80.3,32.7c0.1-0.1,0.2-0.2,0.3-0.2c0.2-0.2,0.4-0.1,0.5,0.1s0.1,0.4-0.1,0.5c-0.3,0.1-0.3,0.3-0.1,0.5
			c0.1,0.2,0.3,0.5,0.4,0.7c-0.6,0.4-1.2,0.8-1.8,1.3c-1,0.9-1.9,1.8-2.9,2.7c-0.2,0.2-0.3,0.3-0.5,0.1C76,38.3,76,38.1,76,37.9
			c0-0.1,0.2-0.3,0.3-0.4c1-1.1,2-2,3.2-2.9c0.2-0.1,0.3-0.2,0.5-0.4c0.1-0.1,0-0.3,0-0.4c-0.1,0-0.3,0-0.3,0c-1.3,1-2.7,2-3.7,3.3
			c-0.3,0.4-0.6,0.7-0.9,1.1c-0.2,0.2-0.4,0.3-0.6,0.1c-0.2-0.2-0.1-0.4,0-0.6c1.4-1.6,2.8-3.2,4.7-4.4c0.1-0.1,0.1-0.3,0.1-0.4
			c-0.1,0-0.3-0.1-0.4,0c-0.8,0.6-1.6,1.2-2.3,1.8c-0.6,0.5-1.1,1.1-1.6,1.7c-0.1,0.1-0.3,0.1-0.3,0c-0.1,0.1-0.2-0.1-0.2-0.3
			c0-0.1,0.1-0.2,0.2-0.3c1.3-1.4,2.7-2.6,4.3-3.7c0.6-0.4,0.6-0.4,1,0.3C80.1,32.5,80.2,32.6,80.3,32.7z"/>
	</g>
</g>
<g>
	<path class="st2" d="M88.9,74c0.1-0.5,0.1-0.9,0.2-1.4c0.1-0.3,0.3-0.5,0.7-0.4c0.3,0.1,0.4,0.4,0.4,0.7c0,0.3-0.1,0.5-0.1,0.8
		c-0.1,1.1-0.2,2.3-0.3,3.4c0,0.4-0.1,0.8-0.2,1.1c-0.2,0.5-0.6,0.7-1.1,0.8c-0.8,0.2-1.6-0.1-2.2-0.7C86,78,85.9,77.6,86,77.1
		c0.2-1,0.4-2,0.6-3c0.1-0.6,0.2-1.1,0.4-1.7c0.1-0.3,0.4-0.5,0.7-0.4c0.3,0.1,0.4,0.3,0.3,0.6c-0.2,1.1-0.4,2.2-0.6,3.4
		c-0.1,0.3-0.1,0.7-0.2,1s0.2,0.7,0.6,0.7c0.6,0.1,0.8,0,0.8-0.5c0.1-0.6,0.1-1.2,0.2-1.8C88.7,75,88.8,74.5,88.9,74L88.9,74z"/>
</g>
<g>
	<path class="st2" d="M64.8,56.4c0-0.5,0.2-1,0.5-1.4c0.3-0.4,0.8-0.4,1.2-0.5c1.2-0.3,2.5-0.5,3.8-0.8c0.3-0.1,0.5,0,0.6,0.3
		s-0.1,0.6-0.4,0.7c-0.7,0.2-1.4,0.3-2.1,0.4c-0.7,0.1-1.3,0.3-2,0.4c-0.3,0.1-0.4,0.3-0.5,0.7c0,0.4,0,0.7,0.4,0.8
		c0.3,0.1,0.7,0,1-0.1c0.3,0,0.6-0.1,0.8-0.2c0.9-0.2,1.8-0.4,2.7-0.7c0.3-0.1,0.5,0,0.5,0.4c0,0.6-0.1,0.7-0.8,0.8
		c-0.6,0.1-1.1,0.3-1.6,0.4c-0.6,0.1-1.2,0.2-1.8,0.4c-0.2,0-0.4,0.1-0.6,0.1C65.6,58.3,64.8,57.6,64.8,56.4z"/>
</g>
<g>
	<path class="st2" d="M73.4,72.2c-0.1-0.1-0.2-0.3-0.3-0.4c-0.1-0.2-0.1-0.4,0.1-0.6c0.4-0.4,0.8-0.9,1.2-1.3c0.2-0.2,0.2-0.3,0-0.5
		c-0.3-0.2-0.6-0.5-0.9-0.7c-0.1-0.1-0.3-0.1-0.4,0c-0.3,0.2-0.6,0.5-0.9,0.8c-0.4,0.3-0.7,0.3-1,0c-0.2-0.2-0.1-0.6,0.2-0.9
		c0.6-0.6,1.3-1.1,1.9-1.6s1.2-1,1.8-1.5c0.2-0.2,0.5-0.3,0.8-0.1c0.3,0.2,0.3,0.4,0.1,0.6c-0.1,0.2-0.3,0.3-0.4,0.5
		c-0.4,0.4-0.9,0.8-1.3,1.2c-0.2,0.2-0.2,0.3,0,0.5c0.3,0.2,0.6,0.5,0.9,0.6c0.2,0,0.5-0.4,0.7-0.7c0.3-0.3,0.6-0.6,1-1
		c0.2-0.2,0.5-0.3,0.7,0c0.2,0.2,0.2,0.5,0,0.7c-0.9,1.1-1.8,2.1-2.8,3.2c-0.3,0.3-0.6,0.7-0.9,1C73.8,72,73.6,72.1,73.4,72.2z"/>
</g>
<g>
	<path class="st2" d="M109.4,65.3c0.4-0.1,0.8-0.2,1.2-0.4c0.7-0.3,1.3-0.1,1.9,0.3c0.2,0.2,0.4,0.5,0.5,0.8c0.3,1.2,0,2.3-1.2,2.8
		c-0.5,0.2-1.1,0.3-1.6,0c-0.1-0.1-0.2-0.4-0.3-0.6c0-0.2,0.1-0.3,0.4-0.4c0.2,0,0.5-0.1,0.7-0.1c0.4-0.1,1-0.6,1-0.9
		c0-0.6-0.4-1-1-0.9c-0.5,0.1-1,0.3-1.5,0.4c-0.6,0.2-1.7-0.1-2.1-0.9c-0.4-0.9-0.2-1.9,0.5-2.3c0.4-0.2,0.9-0.4,1.5-0.3
		c0.3,0.1,0.4,0.3,0.4,0.5c0,0.3-0.1,0.4-0.4,0.4c-0.2,0-0.4,0-0.6,0.1c-0.3,0.1-0.5,0.3-0.5,0.6c0,0.3,0.3,0.6,0.6,0.6
		C109.2,65.3,109.3,65.2,109.4,65.3L109.4,65.3z"/>
</g>
<g>
	<path class="st2" d="M77.6,74.2c-0.1-0.1-0.1-0.2-0.2-0.3c-0.5-0.3-1-0.7-1.5-1c-0.1,0-0.2,0-0.3,0c-0.2,0.1-0.3,0.2-0.4,0.3
		c-0.2,0.2-0.4,0.1-0.6-0.1c-0.2-0.2-0.3-0.5-0.1-0.6c0.5-0.4,1-0.8,1.5-1.1c0.1-0.1,0.2-0.1,0.2-0.2c0.9-0.7,1.8-1.5,2.8-2.2
		c0.2-0.1,0.5-0.2,0.6-0.1c0.2,0.1,0.4,0.4,0.3,0.7c-0.2,0.6-0.3,1.2-0.5,1.7c-0.3,1.2-0.7,2.4-1,3.5c-0.1,0.3-0.4,0.5-0.7,0.4
		c-0.4-0.1-0.5-0.4-0.3-0.7C77.5,74.5,77.5,74.4,77.6,74.2z M76.8,72c0.3,0.2,0.6,0.4,0.9,0.6c0.2,0.1,0.4,0.1,0.4-0.2
		c0.1-0.3,0.2-0.7,0.3-1c0.1-0.2,0.1-0.4,0.2-0.6c0,0-0.1,0-0.1-0.1C77.9,71.2,77.4,71.6,76.8,72z"/>
</g>
<g>
	<path class="st2" d="M73.5,64.8c0.1-0.9-0.8-1.1-1.4-0.9c-0.9,0.3-1.6,0.9-2.2,1.6c-0.1,0.2-0.2,0.6-0.1,0.8
		c0.1,0.3,0.4,0.5,0.7,0.6s0.5-0.2,0.3-0.5c0-0.1-0.1-0.2-0.1-0.3c-0.1-0.2-0.2-0.5,0.1-0.7c0.2-0.1,0.6-0.2,0.8,0.1
		c0.2,0.3,0.4,0.7,0.6,1c0.1,0.1,0,0.3,0,0.4c-0.4,0.5-0.9,0.8-1.5,0.9c-0.7,0.1-1.5-0.5-1.8-1.1c-0.4-0.8-0.2-1.5,0.3-2.1
		c0.6-0.8,1.4-1.4,2.4-1.7c0.3-0.1,0.6-0.3,0.9-0.3c1-0.2,2.1,0.7,2.2,1.7c0,0.3-0.2,0.7-0.3,1c-0.2,0.2-0.5,0.2-0.7,0.2
		c-0.1,0-0.2-0.3-0.2-0.4S73.5,64.9,73.5,64.8z"/>
</g>
<g>
	<path class="st2" d="M103.9,74.3c0.5-0.3,0.9-0.5,1.3-0.7s0.7-0.1,0.9,0.3c0.1,0.1,0,0.4-0.1,0.5c-0.7,0.4-1.3,0.9-2,1.2
		c-0.3,0.1-0.6,0-0.7-0.3c-0.4-0.8-0.8-1.7-1.2-2.5c-0.3-0.5-0.5-1.1-0.8-1.6c-0.3-0.6-0.4-0.9,0-1.2c0.2-0.2,0.5-0.3,0.7-0.5
		c0.2-0.1,0.3-0.2,0.5-0.3c0.2-0.1,0.4-0.4,0.7-0.1c0.2,0.2,0.2,0.7,0,0.9c-0.2,0.2-0.4,0.3-0.6,0.4c-0.2,0.1-0.3,0.3-0.1,0.5
		c0.1,0.2,0.2,0.5,0.3,0.7c0.1,0.2,0.2,0.2,0.4,0.1c0.3-0.2,0.6-0.4,0.9-0.5c0.3-0.1,0.4,0,0.6,0.2c0.1,0.2,0.2,0.4,0,0.6
		c-0.3,0.2-0.6,0.4-0.9,0.7c-0.1,0.1-0.2,0.3-0.2,0.5s0.2,0.3,0.2,0.5C103.7,73.8,103.7,74,103.9,74.3z"/>
</g>
<g>
	<path class="st2" d="M67.4,50.8c0.7,0,1.3,0,2,0c0.3,0,0.4-0.1,0.3-0.4c0-0.3,0-0.5,0-0.8c0-0.5,0.4-0.7,0.8-0.6
		c0.1,0,0.3,0.2,0.3,0.3c0,1.2,0.1,2.3,0.1,3.5c0,0.6-0.4,0.9-0.9,0.5c-0.1-0.1-0.2-0.3-0.2-0.5c0-0.8,0-0.8-0.8-0.8
		c-0.9,0-1.7,0-2.6,0c-0.4,0-0.8,0-1.3,0c-0.2,0-0.4-0.2-0.5-0.3c-0.1-0.2-0.1-0.6,0.2-0.7c0.2-0.1,0.4-0.2,0.6-0.2
		C66,50.8,66.7,50.8,67.4,50.8z"/>
</g>
<g>
	<path class="st2" d="M99.5,75.2c0-0.2,0-0.4,0-0.5c0-1.1,0-2.2,0-3.3c0-0.1,0-0.2,0-0.3c0.1-0.1,0.3-0.3,0.5-0.4
		c0.1,0,0.2,0.2,0.3,0.3v0.1c0,1,0.1,2,0.1,3c0,0.9,0.1,1.7,0.1,2.6c0,0.2-0.1,0.5-0.3,0.6c-0.4,0.4-0.9,0.2-1.1-0.5
		c-0.5-1.1-1-2.1-1.5-3.2c-0.3-0.5-0.5-1.1-0.7-1.6c0-0.1,0.1-0.4,0.2-0.5c0.2-0.1,0.4,0,0.6,0c0.1,0,0.2,0.2,0.2,0.3
		c0.3,0.7,0.6,1.5,1,2.2C99,74.5,99.2,74.8,99.5,75.2z"/>
</g>
<g>
	<path class="st2" d="M111.4,58.3c-0.1,0.3-0.1,0.5-0.1,0.7c0,0.1,0,0.3-0.1,0.4c-0.2,0.5-0.4,0.6-0.8,0.5c-0.3-0.1-0.4-0.4-0.3-0.8
		c0.2-0.9,0.5-1.8,0.8-2.7c0-0.1,0-0.2,0.1-0.3c0.1-0.4,0.3-0.5,0.7-0.5c0.4,0,0.4,0.3,0.3,0.6c0,0.3-0.1,0.7-0.2,1
		c0.3,0.1,0.5,0.2,0.7,0.3c0.9,0.3,1.9,0.7,2.8,1c0.3,0.1,0.7,0.2,1,0.3c0.4,0.2,0.5,0.5,0.4,0.7c-0.1,0.3-0.5,0.4-0.8,0.3
		c-0.7-0.2-1.4-0.5-2.1-0.7C113,58.8,112.3,58.5,111.4,58.3z"/>
</g>
<g>
	<path class="st2" d="M113.1,52.7c-0.3-0.2-0.5-0.4-0.8-0.6c-0.2-0.2-0.5-0.3-0.7-0.4c-0.3-0.2-0.3-0.6-0.1-0.8
		c0.2-0.3,0.4-0.2,0.7-0.1c0.5,0.3,1,0.6,1.4,0.9c0.4,0.3,0.8,0.4,1.3,0.5c0.8,0.1,1.7,0.2,2.5,0.3c0.3,0.1,0.5,0.4,0.3,0.8
		c-0.1,0.1-0.4,0.3-0.5,0.3c-1.1,0-2.1-0.1-3.2-0.1c-0.4,0-0.7,0.3-1.1,0.5c-0.2,0.1-0.5,0.3-0.7,0.4c-0.4,0.2-0.8,0.2-0.9-0.1
		s0-0.7,0.4-0.9C112.1,53.2,112.5,53,113.1,52.7z"/>
</g>
<g>
	<g>
		<path class="st3" d="M81.1,31.3c-0.4,0.1-0.7,0.2-0.9-0.1c-0.1-0.1-0.2-0.1-0.3-0.1c-0.3,0.1-0.5,0.2-0.8,0.4
			c-0.4,0.3-0.9,0.6-1.3,0.9c-1.5,1.1-2.9,2.3-4,3.8c-0.2,0.3-0.5,0.6,0,1c0.1,0,0,0.3,0,0.4c-0.1,0.1-0.4,0.2-0.5,0.2
			c-0.3-0.1-0.5-0.3-0.7-0.6c-0.2-0.2-0.2-0.5,0-0.7c0.4-0.5,0.8-0.9,1.2-1.4c1.6-1.9,3.5-3.4,5.6-4.7c0.2-0.1,0.4-0.2,0.6-0.3
			c0.3-0.2,0.5-0.2,0.6,0.2C80.8,30.6,81,30.9,81.1,31.3z"/>
	</g>
</g>
<g>
	<g>
		<path class="st3" d="M96.9,24.2c0.2,0,0.3,0,0.5,0c0.3,0,0.5,0.1,0.5,0.5c0,0.1,0.2,0.3,0.3,0.4c0.8,0.3,1.6,0.4,2.3,0.7
			c0.7,0.3,1.4,0.6,2.1,0.9c0.5,0.2,0.9,0.4,1.4,0.7c0.1,0.1,0.4,0.3,0.4,0.3c-0.1,0.3-0.2,0.5-0.4,0.7c0,0-0.1,0-0.2,0
			c-2-1.2-4.1-1.9-6.3-2.6c-0.1,0-0.1,0-0.2,0c-0.5,0-0.6-0.2-0.6-0.7C96.7,24.7,96.8,24.5,96.9,24.2z"/>
	</g>
</g>
<g>
	<g>
		<path class="st3" d="M74.1,33.2c0.1-0.2,0.3-0.3,0.4-0.6c-0.5-0.1-0.9-0.2-1.3,0c-0.2,0.1-0.4,0.1-0.5-0.1c-0.1-0.1,0-0.3,0-0.5
			c0.3-0.4,0.6-0.8,0.9-1.2c0-0.1-0.1-0.2-0.1-0.3c0.1-0.1,0.2-0.2,0.3-0.3c0.1-0.1,0.3-0.1,0.3-0.1c0.3,0.1,0.5,0,0.7-0.1
			c0.4-0.2,0.7-0.5,1.1-0.7c0.4,0.6,0.3,0.8-0.2,1c0,0.3,0,0.7,0,1.2c0.4-0.2,0.6-0.4,0.9-0.6c0.4,0.3,0.5,0.4,0.1,0.7
			c-0.3,0.3-0.8,0.5-1.2,0.7c0,0.2-0.1,0.2-0.2,0.3c-0.2,0.2-0.3,0.5-0.5,0.7C74.4,33.7,74.2,33.6,74.1,33.2z M74,31.7v0.1
			c0.2,0,0.3,0.1,0.5,0.1c0.5,0,0.7-0.4,0.5-0.8c0-0.1-0.2-0.1-0.2-0.1C74.5,31.2,74.2,31.5,74,31.7z"/>
	</g>
</g>
<g>
	<path class="st2" d="M109.7,60.5c0.1,0.1,0.3,0.2,0.4,0.3s0.2,0.2,0.3,0.2c0.8,0.4,1.6,0.8,2.4,1.3c0.6,0.3,1.2,0.7,1.8,1.1
		c0.4,0.3,0.5,0.5,0.3,0.9c-0.2,0.3-0.5,0.4-0.9,0.1c-1.5-0.9-3.1-1.7-4.6-2.6c-0.4-0.2-0.4-0.5-0.3-0.8
		C109.1,60.6,109.4,60.6,109.7,60.5z"/>
</g>
<g>
	<path class="st2" d="M112.6,45.5c0-0.9,0.6-1.6,1.5-1.5c0.9,0,1.4,0.6,1.5,1.6c0,0.7-0.8,1.5-1.4,1.5
		C113.2,47.1,112.6,46.5,112.6,45.5z"/>
</g>
<g>
	<path class="st2" d="M79.9,76.5c-0.5,0-0.8-0.3-0.7-0.6c0.1-0.2,0.2-0.4,0.3-0.7c0.3-0.5,0.5-1.1,0.8-1.6c0.2-0.5,0.5-0.9,0.7-1.4
		c0.1-0.2,0.2-0.3,0.2-0.5c0.2-0.3,0.3-0.7,0.5-1c0.1-0.3,0.5-0.4,0.8-0.2c0.3,0.1,0.4,0.4,0.2,0.7c-0.7,1.4-1.4,2.8-2.1,4.2
		c-0.1,0.3-0.2,0.6-0.4,0.8C80.2,76.3,80,76.4,79.9,76.5z"/>
</g>
<g>
	<path class="st2" d="M70.3,44.1c0,0.9-0.6,1.6-1.5,1.5c-0.8,0-1.5-0.5-1.5-1.6c0-0.7,0.8-1.5,1.5-1.5
		C69.6,42.6,70.4,43.3,70.3,44.1z"/>
</g>
<g>
	<path class="st2" d="M96.4,74.1c0.1,0.5,0.1,1,0.2,1.5c0.1,0.8,0.3,1.5,0.4,2.3c0.1,0.4-0.1,0.6-0.4,0.7c-0.4,0.1-0.5-0.1-0.6-0.5
		c-0.1-0.7-0.2-1.3-0.4-2c-0.1-0.8-0.3-1.6-0.4-2.4c-0.1-0.4-0.1-0.8-0.2-1.2c0-0.3,0.4-0.6,0.7-0.6c0.3,0,0.4,0.2,0.4,0.5
		c0.1,0.5,0.2,0.9,0.3,1.4C96.4,73.8,96.4,73.9,96.4,74.1C96.4,74,96.4,74.1,96.4,74.1z"/>
</g>
<g>
	<g>
		<path class="st3" d="M72.3,34.9c0.2-0.2,0.3-0.4,0.5-0.6c0.1-0.1,0.2-0.2,0.3-0.1c0.1,0.1,0.3,0.2,0.3,0.3s-0.1,0.2-0.1,0.3
			c-0.2,0.3-0.4,0.6-0.6,0.8c-0.4,0.5-0.4,0.5-0.9,0.1c-0.5-0.4-0.9-0.7-1.4-1.1c-0.3-0.2-0.3-0.4-0.1-0.7c0.3-0.4,0.6-0.8,0.9-1.1
			c0.1-0.2,0.4-0.3,0.5-0.1s0.2,0.4-0.1,0.6c-0.2,0.2-0.3,0.4-0.4,0.7c0,0.1,0.1,0.2,0.2,0.3c0.1-0.1,0.2-0.1,0.3-0.2
			c0.2-0.2,0.3-0.4,0.5-0.6c0.1-0.1,0.2,0,0.3,0c0,0.1,0,0.3,0,0.4c-0.1,0.2-0.3,0.4-0.4,0.6c-0.1,0.1,0,0.2,0,0.3
			C72.2,34.8,72.3,34.8,72.3,34.9z"/>
	</g>
</g>
<g>
	<g>
		<path class="st3" d="M78.1,27.3c0.4,0.8,0.8,1.5,1.2,2.3c0.1,0.3,0.1,0.4-0.1,0.6c-0.4,0.2-0.9,0.5-1.4,0.7c0-0.2-0.1-0.4-0.1-0.6
			c0.3-0.2,0.5-0.3,0.8-0.5c-0.1-0.5-0.2-0.6-0.6-0.2c-0.1,0.1-0.2,0.2-0.2,0.2c-0.1,0.2-0.4,0.2-0.5,0c-0.1-0.1,0-0.4,0.1-0.5
			c0.1-0.2,0.4-0.2,0.5-0.4c0.1-0.1,0.1-0.4,0.1-0.5c-0.2,0-0.3,0-0.5,0.1c-0.2,0.1-0.3,0.3-0.5,0.4c-0.1,0.1-0.3,0.1-0.3,0
			c-0.1-0.1-0.1-0.4-0.1-0.5C76.8,27.9,77.4,27.5,78.1,27.3z"/>
	</g>
</g>
<g>
	<g>
		<path class="st3" d="M94.3,23.8c0.5,0.1,1,0.2,1.4,0.3c0.3,0.1,0.3,0.4,0.2,0.8c-0.1,0.3-0.3,0.2-0.5,0.2c-0.5-0.1-1-0.2-1.5-0.2
			c-0.2,0-0.3-0.1-0.3-0.3C93.5,23.9,93.5,23.9,94.3,23.8z"/>
	</g>
</g>
<g>
	<g>
		<path class="st3" d="M95.1,26.8c0,0.3,0,0.4,0,0.6c0,0.3-0.2,0.6-0.6,0.4c-0.1,0-0.1,0-0.2,0c-0.8,0-0.9-0.2-0.7-1.1
			C94,26.7,94.5,26.7,95.1,26.8z"/>
	</g>
</g>
<g>
	<g>
		<path class="st3" d="M93.9,29.9c0.1,0,0.2,0,0.2,0c0.6,0,0.8,0.3,0.5,0.8c0,0.1-0.2,0.1-0.2,0.1c-0.1,0-0.3,0-0.4,0
			c-0.5,0-0.7-0.3-0.6-0.8c0-0.1,0.1-0.1,0.2-0.1C93.7,29.9,93.8,29.9,93.9,29.9z"/>
	</g>
</g>
<g>
	<path class="st2" d="M90.3,58c-4,0-7.9,0-11.9,0c-0.2-0.5-0.4-0.9-0.6-1.4c4.2,0,8.4,0,12.5,0v-0.1c-0.1,0-0.3-0.1-0.4-0.1
		c-2,0-3.9,0-5.9,0s-3.9,0-5.9,0c-0.3,0-0.4-0.1-0.5-0.4c-0.1-0.5-0.2-1-0.4-1.6c3.7,0,7.3,0,10.9,0c0-0.1,0-0.1,0-0.2
		c-0.1,0-0.3-0.1-0.4-0.1c-3.2,0-6.5,0-9.7,0c-0.9,0-0.9,0-1-0.9c0-0.4,0-0.8,0-1.2c9.4,0,18.8,0,28.3,0c0,0.3,0,0.5,0,0.8
		c0,0.2,0,0.4-0.1,0.6c-0.1,0.8-0.1,0.8-0.9,0.8c-3.1,0-6.2,0-9.4,0c-0.2,0-0.3,0-0.5,0.1c1.2,0.2,2.3,0.1,3.5,0.1
		c1.2,0,2.4,0,3.6,0c1.2,0,2.4,0,3.6,0c-0.2,0.7-0.3,1.3-0.5,1.9c-4.1,0-8.2,0-12.3,0c0,0.1,0,0.1,0,0.2c0.8,0,1.6,0,2.4,0
		c0.8,0,1.6,0,2.4,0s1.6,0,2.4,0c0.8,0,1.6,0,2.4,0c0.8,0,1.6,0,2.5,0c-0.2,0.5-0.4,0.9-0.5,1.3c0,0.1-0.2,0.1-0.4,0.1
		c-3.6,0-7.2,0-10.8,0c-0.1,0-0.3,0-0.4,0V58c0.1,0,0.1,0.1,0.2,0.1c0.1,0,0.2,0,0.3,0c3.5,0,7,0,10.5,0c0.1,0,0.3,0,0.5,0
		c-0.2,0.3-0.3,0.7-0.5,0.9c-0.1,0.1-0.3,0.2-0.5,0.2c-3.4,0-6.7,0-10.1,0c-0.1,0-0.3,0-0.4,0.1c0,0.1,0,0.1,0,0.2
		c3.6,0,7.1,0,10.8,0c-0.2,0.3-0.4,0.6-0.6,0.8c-0.1,0.1-0.3,0.2-0.5,0.2c-3.1,0-6.3,0-9.4,0c-4.1,0-8.1,0-12.2,0
		c-0.6,0-1-0.3-1.1-1c3.6,0,7.3,0,10.9,0v-0.1c-0.1,0-0.1-0.1-0.2-0.1s-0.2,0-0.3,0c-3.4,0-6.9,0-10.3,0c-0.3,0-0.5-0.1-0.6-0.4
		c-0.1-0.2-0.2-0.4-0.4-0.7c1.4,0,2.7,0,4,0c1.3,0,2.6,0,3.9,0c1.3,0,2.6,0,3.9,0C90.3,58.1,90.3,58,90.3,58z M89,54.2
		c0,0.3,0,0.5,0,0.8c0.7,0,1.3,0,1.9,0c0,1.6,0,3.1,0,4.6c0.3,0,0.6,0,0.9,0c0-1.5,0-3.1,0-4.6c0.7,0,1.3,0,1.9,0c0-0.3,0-0.5,0-0.8
		c-0.7,0-1.3,0-2,0c0-0.5,0-1,0-1.5c-0.3,0-0.6,0-0.9,0c0,0.5,0,1,0,1.5C90.3,54.2,89.7,54.2,89,54.2z"/>
</g>
<g>
	<path class="st2" d="M104.3,46c-1.8,0-3.5,0-5.3,0v0.1c0.1,0,0.3,0,0.4,0c1.5,0,3.1,0,4.6,0c0.3,0,0.4,0.1,0.5,0.3
		c0.2,0.8,0.4,1.6,0.7,2.4c0,0.1,0,0.3,0.1,0.5c-9.3,0-18.6,0-28,0c0.1-0.5,0.2-1,0.3-1.5c0.1-0.4,0.3-0.7,0.4-1.1
		c0.1-0.5,0.3-0.6,0.7-0.6c1.5,0,3,0,4.5,0c0.1,0,0.3,0,0.4,0c0-0.1,0-0.1,0-0.2c-0.1,0-0.2-0.1-0.4-0.1c-1.5,0-3,0-4.5,0
		c-0.1,0-0.3,0-0.5,0c0.2-0.4,0.3-0.7,0.5-1c0.4-0.7,0.9-1.5,1.4-2.2c0.2-0.3,0.5-0.4,0.9-0.4c6.9,0,13.7,0,20.6,0
		c0.4,0,0.6,0.1,0.9,0.4C103.2,43.7,103.8,44.8,104.3,46z M93.4,48.1c0.1,0.1,0.2,0.1,0.3,0.2c0.8,0.6,1.8,0.8,2.7,0.5
		c1.7-0.6,2.7-2.4,1.8-4.2c-0.8-1.7-2.8-2.3-4.4-1.2c-0.3,0.2-0.5,0.2-0.9,0c-0.8-0.5-1.6-0.8-2.6-0.4c-0.4,0.2-0.8,0.4-1.2,0.6
		c-0.1-0.1-0.2-0.1-0.3-0.2c-0.8-0.5-1.7-0.7-2.6-0.4c-1.9,0.6-2.8,3-1.5,4.7c1,1.2,2.8,1.6,4.1,0.7c0.3-0.2,0.6-0.2,0.9,0
		c0.9,0.6,1.8,0.7,2.8,0.3C92.7,48.4,93.1,48.3,93.4,48.1z"/>
</g>
<g>
	<path class="st2" d="M101.7,42c-7,0-14,0-21,0v-0.1c2.1-2.4,4.7-3.9,7.9-4.5C93.8,36.5,98.2,38.1,101.7,42
		C101.8,41.9,101.7,42,101.7,42z"/>
</g>
<g>
	<path class="st2" d="M105.3,49.5c0,0.8,0.1,1.5,0.1,2.2c-9.5,0-18.9,0-28.4,0c0-0.4,0-0.7,0.1-1.1c0-0.4,0.1-0.8,0.1-1.1
		C86.6,49.5,95.9,49.5,105.3,49.5z"/>
</g>
<g>
	<path class="st2" d="M80.2,60.7c7.4,0,14.8,0,22.1,0c-0.2,0.6-0.8,1.2-1.5,1.2c-6.4,0-12.8,0-19.2,0c-0.3,0-0.5-0.1-0.7-0.3
		C80.7,61.3,80.4,61,80.2,60.7z"/>
</g>
<g>
	<path class="st2" d="M101.1,62.1c-0.6,0.5-0.9,1-1.7,1c-5.3,0-10.7,0-16,0c-0.6,0-1.1-0.2-1.6-0.6c-0.1-0.1-0.2-0.2-0.4-0.4
		C88,62.1,94.5,62.1,101.1,62.1z"/>
</g>
<g>
	<path class="st2" d="M82.9,63.3c5.6,0,11.1,0,16.6,0c-0.4,0.4-0.8,0.7-1.4,0.7c-4.5,0-9,0-13.5,0C83.9,64.1,83.4,63.8,82.9,63.3z"
		/>
</g>
<g>
	<path class="st2" d="M84.5,64.3c4.5,0,8.9,0,13.4,0c-0.3,0.3-0.6,0.5-1.1,0.5c-3.7,0-7.5,0-11.2,0C85.2,64.8,84.8,64.5,84.5,64.3
		C84.5,64.4,84.5,64.4,84.5,64.3z"/>
</g>
<g>
	<path class="st2" d="M86.2,65.1c3.3,0,6.7,0,10,0c-0.4,0.3-0.9,0.5-1.5,0.5c-2.4,0-4.7,0-7.1,0c-0.5,0-1-0.2-1.5-0.3
		C86.2,65.2,86.2,65.2,86.2,65.1z"/>
</g>
<g>
	<path class="st2" d="M94.1,65.8c-1.9,0.4-3.7,0.4-5.6,0.1v-0.1C90.4,65.8,92.2,65.8,94.1,65.8z"/>
</g>
<g>
	<path class="st2" d="M93.8,44.1c1.4-1.1,2.8-0.7,3.5,0.1c0.9,1,0.9,2.2,0.1,3.2s-2.4,1.2-3.5,0.2C94.4,46.4,94.5,45.2,93.8,44.1z
		 M97.4,46.1c-0.2-0.2-2-0.3-2.5-0.2c-0.1,0-0.1,0.1-0.2,0.2C95.6,46.1,96.5,46.1,97.4,46.1z"/>
</g>
<g>
	<path class="st2" d="M88.7,44.1c-0.7,1.2-0.8,2.3,0,3.5c-1.1,1-2.5,0.9-3.5-0.1c-0.9-1-0.9-2.2,0-3.2
		C86.2,43.2,87.5,43.1,88.7,44.1z M85.1,46.1c0.9,0,1.8,0,2.7,0C87.5,45.9,85.3,45.9,85.1,46.1z"/>
</g>
<g>
	<path class="st2" d="M92.9,47.6c-1.3,0.9-2.6,0.7-3.3-0.1c0.7-1.6,0.6-2.1,0-3.5c0.8-0.8,2-0.9,3-0.3c0.4,0.2,0.3,0.3,0.1,0.7
		c-0.3,0.6-0.4,1.2-0.2,1.8C92.6,46.7,92.7,47.2,92.9,47.6z M91.9,46.1c-0.2-0.3-1.2-0.3-1.4,0C91,46.1,91.5,46.1,91.9,46.1z"/>
</g>
<g>
	<path class="st2" d="M93.4,44.7c0.4,0.8,0.3,1.5,0,2.2C92.9,46.5,92.9,45.2,93.4,44.7z"/>
</g>
<g>
	<path class="st2" d="M89.1,46.9c-0.4-0.5-0.4-1.6,0-2.2C89.5,45.1,89.5,46.4,89.1,46.9z"/>
</g>
<g>
	<g>
		<path d="M217,27.4c-0.4,1.8-0.7,3.7-1.1,5.5c-0.1,0.7,0.1,0.8,0.7,0.7c0.9-0.2,1.9-0.4,2.8-0.6c0.6-0.1,1.2-0.2,1.8-0.4
			c0.5-0.1,1-0.3,1.6-0.5c0.8-0.2,1.7-0.3,2.5-0.4c0.4,0,0.7,0.3,1.1,0.5c0.9,0.4,1.3,1.4,1.1,2.3c-0.2,0.7-0.6,1.1-1.3,1.2
			c-1.5,0.3-2.9,0.5-4.4,0.7c-0.4,0.1-0.8,0.3-1.2,0.5c-1,0.4-2,0.7-3,1.1c-0.5,0.2-0.6,0.5-0.2,0.9c2,2.2,4.5,3.9,7.1,5.4
			c0.8,0.5,1.6,1,2.4,1.4c0.4,0.2,0.9,0.4,1.4,0.6c1,0.3,2,0.6,3,0.8c0.8,0.2,1,0.6,0.6,1.3c-0.1,0.1-0.1,0.3-0.1,0.4
			c-0.1,1.9-2.1,2.6-3.6,2.2c-0.8-0.2-1.6-0.6-2.4-1c-0.9-0.5-1.9-1-2.8-1.6c-1.8-1.2-3.6-2.5-5.3-3.8c-0.9-0.6-1.7-1.3-2.5-1.9
			c-0.5-0.4-0.9-0.3-1.2,0.1c-0.4,0.5-0.8,1-1.2,1.6c-0.6,1-1.4,1.8-2.6,2.1c-0.8,0.2-1.4,0.9-2.4,0.7c-0.4-0.1-0.7-0.1-1.1-0.3
			c-0.1,0-0.3-0.2-0.3-0.3s0.2-0.2,0.3-0.3h0.1c1.6,0.2,2.4-1,3.2-2.1c0.7-0.9,0.8-1.9,0.8-3c0-0.1-0.3-0.3-0.5-0.3
			c-0.5,0.1-1,0.3-1.6,0.4c-1.3,0.2-2.5,0.5-3.8,0.7c-0.2,0-0.5,0-0.7,0c-0.8-0.2-0.9-0.5-0.6-1.3c0.5-1,1.4-1.3,2.2-1.8
			c1.7-0.9,3.3-1.9,5-2.8c1.1-0.5,1.4-1.3,1.4-2.5c0-2.3,0.7-4.5,1.4-6.6c0.3-0.9,0.9-1.4,1.7-1.9c0.5-0.3,1.2,0.2,1.3,0.9
			c0,0.4,0,0.9,0,1.3C216.9,27.4,217,27.4,217,27.4z"/>
	</g>
	<g>
		<path d="M251.3,35c0.3,0.1,0.7-0.1,0.7-0.7c0.1-0.6,0.1-1.3,0.1-1.9c0-1.4-0.2-2.8-0.2-4.2c0-1.6,0.2-3.3,0.4-4.9
			c0.1-0.6,0.4-1.2,0.7-1.7s0.8-0.9,1.5-0.5c0.2,0.1,0.4,0,0.7,0.1c0,0.6,0.1,1.2,0,1.7c-0.3,1.9-0.7,3.9-1,5.8
			c-0.1,0.9,0,1.8,0,2.8c0,0.7,0.1,1.4,0.2,2.1c0,0.3,0.2,0.6,0.3,0.8c0.3-0.2,0.8-0.3,0.9-0.6c0.2-0.7,0.4-1.2,1-1.7
			c0.2-0.2,0.1-0.7,0-1.1c0-0.7-0.2-1.3-0.1-2c0.1-0.7,0.4-0.9,1.1-0.6c0.2,0.1,0.5,0.3,0.7,0.5c0.2,0.2,0.3,0.4,0.7,0.8
			c0.2-0.5,0.5-1,0.4-1.3c-0.1-0.4-0.5-0.8-0.8-1c-0.6-0.2-1.3-0.2-1.9-0.3c-0.3,0-0.6-0.1-1-0.2c0.2-0.2,0.3-0.3,0.4-0.4
			c1-0.8,1-1.2,0.4-2.2c-0.2-0.3-0.1-0.8,0-1.2c0.1-0.3,0.5-0.4,0.8-0.2c0.2,0.1,0.5,0.2,0.7,0.3c0.5,0.2,0.9,0.1,1.1-0.4
			c0.2-0.7,0.4-1.3,0.7-2c0.1-0.3,0.4-0.6,0.7-0.7c0.4-0.1,0.8,0,0.7,0.6c-0.2,0.8-0.4,1.6-0.6,2.4c-0.2,0.6-0.4,1.3-0.4,1.9
			c0,0.4,0.2,0.8,0.4,1.2c0.5,0.7,0.7,1.3,0.4,2.1c-0.4,1.3-0.8,2.6-1,3.9c-0.2,1.1,0.1,1.3,1.3,1.2c1.2-0.1,2.4-0.1,3.2-1.2
			c0.2-0.3,0.4-0.7,0.5-1c-0.9-0.2-1.6-0.4-2.4-0.6c-0.6-0.2-0.7-0.7-0.5-1.1c0.2-0.5,0.4-1.2,0.8-1.3c0.6-0.1,1.3,0.1,1.9,0.3
			c0.8,0.3,1.3,0.2,1.6-0.7c0.1-0.2,0.1-0.5,0.2-0.8c-0.4,0-0.7,0.1-1,0.1c-1.1,0.1-2-0.4-2.3-1.5c-0.2-0.7,0.4-1.8,1.1-1.9
			c0.2,0,0.6,0,0.8,0.2c0.4,0.2,0.8,0.6,1.2,0.9c0.5,0.4,0.8,0.3,1-0.3c0.2-0.4,0.5-0.9,0.6-1.3c0.2-0.5,0-0.9-0.6-0.8
			c-0.5,0-1,0-1.5,0c-0.6,0-1.2-0.3-1.3-0.9s0.3-1.1,0.9-1.3c1-0.5,2.1-1,3.3-0.7c0.6,0.1,1.1,0.8,1.6,1.3c0.4,0.4,0.3,0.8,0.2,1.4
			c-0.4,2.4-1.6,4.5-2.6,6.6c-0.6,1.3-0.7,2.8-1,4.1c1.1,0.3,2,0.4,2.8,0.7c2.2,0.8,2.9,2.1,2.8,4.3c0,1.1-1.2,1.7-2.2,1.2
			c-0.4-0.2-0.9-0.3-0.9-0.8c0-0.3,0-0.7,0.2-0.9c0.5-0.6,0.4-1.2,0.2-1.8c-0.2-0.6-0.8-0.6-1.3-0.7c-1.2-0.1-2.4-0.4-3.6-0.3
			c-3,0.3-5.9,0.8-8.8,1.2c-2.3,0.3-4.5,0.9-6.5,1.9c-2.3,1.2-4.1,2.9-5.1,5.4c-0.1,0.3-0.2,0.5-0.2,0.8c0,0.5-0.2,1.1-0.8,1
			c-0.3-0.1-0.7-0.6-0.8-1c-0.1-0.5,0-1.1,0.1-1.7c0.2-0.8,0.5-1.6,0.7-2.4c0.1-0.2,0.2-0.4,0.4-0.6c0.1,0,0.1,0,0.2,0.1
			c-0.2,0.9-0.3,1.9-0.5,2.9c0.3,0.1,0.5,0.1,0.8,0.2c0.1-0.2,0.3-0.5,0.4-0.7c0.7-1.2,1.4-2.5,2.2-3.7c0.3-0.5,1-0.8,1.5-1
			s0.6-0.4,0.6-0.9c-0.1-0.7,0-1.5-0.2-2.2c-0.3-1.8-0.7-3.6-1-5.3c-0.3-1.5-0.1-2.9,0.6-4.2c0.2-0.4,0.8-0.8,1.2-0.8
			c0.8,0,1.4,0.6,1.4,1.4c0,0.6-0.1,1.2-0.2,1.8c-0.2,1-0.3,1.9-0.6,2.9c-0.1,0.6-0.3,1.3-0.5,1.9c-0.2,0.5-0.1,0.9,0.2,1.3
			C250.6,33.3,250.9,34.1,251.3,35z"/>
	</g>
	<g>
		<path d="M182.3,42.6c0.7,0,0.8-0.5,1-0.9c0.3-1.1,0.6-2.2,0.8-3.3c0.3-1.2,0.7-1.5,1.9-1.3c0.5,0.1,1.3-0.2,1.3,0.8
			s-0.5,1.7-1.4,1.9c-0.3,0.1-0.7,0.2-1,0.3c-0.9,0.5-1.3,1.4-1.2,2.6c0.3-0.1,0.7-0.1,0.9-0.3c1.3-1,2.9-1.3,4.4-1.7
			c0.6-0.2,1-0.5,1.2-1.1c0.3-1,0.5-2.1,0.8-3.1c0.2-0.8,0.6-0.9,1.2-0.4c1,1,1.2,1.5,0.8,2.7c-0.2,0.5-0.4,1-0.6,1.5
			c-0.2,0.5-0.1,0.9,0.4,1.3c1.1,0.9,2.2,1.9,2.9,3c0.9,1.4,1.2,3.2,0.6,4.9c-0.4,1.1-1.3,2-2.5,2.5c-0.5,0.2-1.1,0.4-1.6,0.7
			c-1.4,0.7-2.8,0.5-4.2,0.3c-0.6-0.1-1.1-0.1-1.7-0.2c-0.2-0.1-0.6-0.4-0.6-0.5c0.1-0.4,0.3-0.7,0.5-1c0.2-0.2,0.6-0.3,0.8-0.3
			c0.8,0,1.7,0,2.5,0.1c2,0.3,4.1-1.2,4.2-3.2c0.1-1,0.1-1.9,0-2.9s-0.8-1.7-1.6-2.2c-0.4-0.3-0.7-0.1-1,0.3
			c-1.2,1.5-2.4,3.1-3.7,4.6c-0.9,1-2.1,1.1-3.4,1.2c-1.1,0.1-2.2,0.2-3.2-0.5c-0.1-0.1-0.3,0-0.4,0c-0.3-0.1-0.9-0.1-0.9-0.2
			c0-0.5-0.1-1.1,0.2-1.4c1.3-1.4,1.3-3,1.3-4.8c-0.1-2.2,0.1-4.4,0.2-6.7c0-0.9,0.3-1.8,0.4-2.8c-0.3,0.1-0.5,0.1-0.6,0.2
			c-1,1-1.9,2.1-2.9,3.1c-0.7,0.8-1.4,1.5-2.1,2.3c-0.6,0.6-1,1.4-1.1,2.3c-0.1,0.4-0.2,0.8-0.4,1.2c-0.1,0-0.2,0-0.3,0
			c0-0.7-0.1-1.4,0-2c0.2-1.8,0.8-3.4,1.6-5c0.1-0.2,0.2-0.4,0.3-0.6c0.5-1.2,1.2-2.2,2.3-2.8c1.1-0.7,2.2-1.4,3.2-2.2
			c0.5-0.4,1-0.9,1.3-1.5c0.7-1,1.2-2,1.8-3c0.1-0.2,0.2-0.4,0.4-0.6c0.1,0.1,0.2,0.1,0.3,0.2c0,0.6,0,1.1,0,1.7s0.4,0.8,0.9,0.6
			c1.3-0.6,2.5-1.3,3.8-1.9c1.1-0.5,2.3-0.9,3.5-1.3c0.4-0.2,0.8-0.1,1,0.3s0.3,1-0.2,1.3c-1,0.5-2.1,1-3.2,1.5
			c-2.7,1.1-5.4,2.2-6.8,5c-0.4,0.7-0.5,1.5-0.8,2.3c-0.3,0.9-0.7,1.8-0.8,2.7c-0.2,1-0.3,2-0.4,3.1
			C182.2,40.1,182.3,41.3,182.3,42.6z M188,43.3c-1.3-0.1-3.7,1.3-4.2,2.4c-0.2,0.4,0,0.7,0.5,0.6C186.2,46.1,187,44.7,188,43.3z"/>
	</g>
	<g>
		<path d="M142.5,42.1c-0.1-0.3-0.2-0.4-0.2-0.5c0-0.8-0.4-1.2-1.2-1.3c-0.1,0-0.3-0.4-0.3-0.6c-0.2-1.6,0.2-3.1,0.6-4.6
			c0.2-0.6,0.2-1.2,0.3-1.9c-0.3,0-0.6-0.1-0.9-0.1c-0.9,0-1.8,0.1-2.7,0.2c-1.6,0.2-2.8-0.5-4-1.4c-0.2-0.2-0.1-0.9-0.1-1.3
			c0.1-0.3,0.3-0.7,0.5-1c0.3-0.6,0.8-1,1.5-1.1c1.5-0.3,3-0.6,4.5-0.9c1-0.2,1.9-0.3,2.9-0.3c1.7,0,3-0.7,3.9-2.2
			c0.6-1.1,1.5-2,2.4-2.9c0.4-0.4,1.2-0.6,1.7-0.5c1.2,0.2,2.5,0.4,3.5,1.3c0.2,0.2,0.3,0.4,0.4,0.7c-2-0.2-3.3,0.6-4.4,2.2
			c1.1,0.4,2.1,0,3.1-0.1c1.7-0.2,3.4-0.5,5.1-0.7c0.4,0,0.9,0.1,1.3,0.2c0.2,0.1,0.3,0.5,0.3,0.8c0,1-0.1,2-0.2,3.1
			c0,0.4-0.2,0.7-0.6,0.8c-1.2,0.2-2.3,0.5-3.5,0.6c-2.4,0.3-4.7,0.6-7.1,0.9c-1,0.1-2.1,0.3-3.1,0.6c-0.4,0.1-0.8,0.7-1.1,1.2
			c-0.7,1.4-1.5,2.8-2,4.3c-0.4,1.1-0.5,2.3-0.7,3.4C142.6,41.4,142.6,41.7,142.5,42.1z"/>
	</g>
	<g>
		<path d="M258,46.3c-0.6-0.8-1.1-1.4-1.6-2c-0.4-0.4-0.6-0.9-0.3-1.3c0.2-0.3,0.6-0.5,1-0.5c0.4-0.1,0.8,0,1.2,0.1
			c0.6,0.1,1,0,1.4-0.5s0.8-0.9,1.1-1.4c0.2-0.2,0.4-0.4,0.6-0.7c0.1-0.2,0.3-0.7,0.2-0.7c-0.2-0.2-0.6-0.3-0.9-0.3
			c-0.8,0.2-1.7,0.4-2.5,0.7c-1.2,0.5-2.4,1-3.6,1.6c-0.4,0.2-0.8,0.5-1.1,0.9c-0.9,1-1.9,1.3-3.2,1.1c-0.3-0.1-0.6-0.4-0.8-0.8
			c-0.1-0.2,0.1-0.6,0.3-0.8s0.4-0.3,0.7-0.5c1-0.5,2.1-0.9,3-1.4c2.2-1.2,4.4-2.1,6.9-2.5c0.8-0.1,1.6,0,2.3,0.2
			c0.3,0.1,0.7,0.7,0.7,1.1c0.1,1.4-0.4,2.6-1.2,3.8c-0.3,0.4-0.8,0.6-1.2,0.9c-0.4,0.4-0.9,0.7-0.7,1.4c0.2,0.6,0.6,0.8,1.2,0.7
			c1.6-0.1,3.1-0.2,4.7-0.3c0.7,0,1.4-0.3,2.1,0.3c0.5,0.5,0.8,2,0.4,2.6s-1.1,0.5-1.7,0.5c-1.2-0.1-2.4,0-3.6,0.1
			c-0.1,0-0.4,0.3-0.4,0.4c-0.1,0.3-0.1,0.6-0.1,0.9c0,2.2-0.7,4.1-2.1,5.8c-0.4,0.5-1,0.9-1.5,1.2c-1.6,1-3.4,1.7-5.3,1.2
			c-0.9-0.2-1.8-0.6-2.6-1c-0.3-0.2-0.7-0.7-0.7-0.8c0.2-0.4,0.6-0.8,1-0.9c0.7-0.1,1.4,0,2.1,0c0.6,0,1.2,0,1.7-0.2
			c2-0.7,3.4-2.1,4.4-4c0.4-0.9,0.1-1.6-0.9-1.5c-2.9,0.1-5.7,0.2-8.5,1.4c-1.2,0.5-2.6,0.5-4,0.7c-0.4,0.1-0.7-0.2-0.6-0.7
			c0-0.1,0-0.2,0-0.3c0-1.4,0.1-1.6,1.4-2c1.9-0.6,3.8-1.2,5.7-1.7c1.4-0.3,2.9-0.4,4.3-0.6C257.4,46.4,257.6,46.4,258,46.3z"/>
	</g>
	<g>
		<path d="M156.9,39.1c-0.1,0.6-0.3,1.2-0.4,1.8c-0.2,1.4-1.2,2-2.4,2.4c-0.9,0.3-1.8,0.5-2.7,0.7c-0.6,0.1-1,0.4-1.1,1.1
			c-0.1,1.6-0.3,3.2-0.2,4.8c0.1,1.7-0.3,2.4-2,2.8c-0.5,0.1-1,0.3-1.5,0.5c-0.2-0.1-0.5-0.4-0.7-0.5c0.1-0.9,0.2-1.8,0.2-2.7
			c0-0.1,0.1-0.3,0.2-0.4c1-0.6,0.8-1.6,0.9-2.6c0.1-0.5,0.1-1.1,0.2-1.6c0.1-0.5-0.1-0.7-0.5-0.9c-0.3-0.1-0.7-0.2-1-0.3
			c-0.4-0.2-0.8-0.4-1.3-0.5c-0.4-0.1-0.9-0.1-1.3-0.2c-0.1,0-0.2-0.1-0.4-0.3c1-0.3,2.1-0.7,3.1-0.9c1.7-0.3,2-0.4,1.9-2.1
			c-0.1-1.2,0.6-2,1-2.9c0.2-0.4,0.4-0.2,0.6,0.1c0.7,0.9,0.9,1.9,0.9,3c0,0.5,0.2,0.6,0.6,0.6c1.4-0.2,2.7-0.6,3.7-1.8
			C155.3,38.4,155.8,38.4,156.9,39.1z"/>
	</g>
	<g>
		<path d="M175.1,46.2c-0.2,1.8-0.4,3.5-0.6,5.3c-0.1,1.1-0.9,1.8-1.6,2.6c-0.3,0.3-0.7,0.3-1.1,0.1c-0.9-0.6-1.3-1.5-1.5-2.4
			c-0.4-1.8-0.9-3.6-1.2-5.4c-0.2-1.1-0.1-2.2,0-3.3c0-0.3,0.3-0.7,0.6-0.7c0.4-0.1,0.7,0.2,0.9,0.6c0.8,1.1,0.7,2.4,1.1,3.7
			c0.1,0.4,0.2,0.8,0.6,0.7c0.2,0,0.5-0.4,0.6-0.6c0.4-1,0.6-2.1,1-3.1c0.1-0.2,0.4-0.3,0.7-0.5c0.1,0.2,0.4,0.5,0.4,0.7
			c0,0.8,0,1.7,0,2.5C175,46.2,175,46.2,175.1,46.2z"/>
	</g>
	<g>
		<path d="M135.7,50.5c-0.1-1.1,0.4-1.9,1-2.5c0.4-0.4,0.8-0.3,1.1,0.1c0.2,0.2,0.4,0.5,0.5,0.7c0.4,0.6,0.9,1,1.5,1.4
			c0.5,0.3,0.7,1,1,1.6c0.2,0.3,0.5,0.8,0.4,1.1c-0.3,0.8-0.7,1.7-1.6,2c-0.3,0.1-0.7-0.2-1.1-0.3c-0.3-0.1-0.6-0.3-0.9-0.5
			c-0.3-0.3-0.7-0.5-0.8-0.9C136.3,52.3,135.5,51.5,135.7,50.5z"/>
	</g>
	<g>
		<path d="M159.6,51.1c0,1.5-1.3,2.3-2.5,1.7c-1.6-0.8-2.1-1.8-1.7-3.7c0.1-0.6,0-1.2,0.1-1.7c0.1-0.9,1-1.4,1.7-0.7
			s1.4,1.3,1.6,2.3c0.1,0.6,0.5,1.1,0.7,1.7C159.6,50.9,159.6,51.1,159.6,51.1z"/>
	</g>
	<g>
		<path d="M171.8,31.4c-0.1,1.2-0.3,2-1,2.6c-0.4,0.4-0.8,0.4-0.9-0.2c-0.2-1-0.4-2.1-0.6-3.1c-0.1-0.5,0-0.9,0.5-1.1
			c0.2-0.1,0.2-0.3,0.4-0.4c0.1-0.2,0.4-0.5,0.4-0.4c0.2,0.1,0.4,0.3,0.5,0.5C171.4,30,171.6,30.8,171.8,31.4z"/>
	</g>
</g>
<g>
	<rect x="134" y="62" width="138.6" height="0.8"/>
</g>
<g>
	<rect x="134.5" y="80.2" width="138.6" height="0.8"/>
</g>
<g id="ooo">
	<path class="st3" d="M95.5,42.8c-0.8,0-1.5,0.3-2.1,0.8c-0.5-0.5-1.3-0.8-2.1-0.8c-0.8,0-1.5,0.3-2.1,0.8c-0.5-0.5-1.3-0.8-2.1-0.8
		c-1.7,0-3.1,1.4-3.1,3.1c0,1.7,1.4,3.1,3.1,3.1c0.8,0,1.5-0.3,2.1-0.8c0.5,0.5,1.3,0.8,2.1,0.8c0.8,0,1.5-0.3,2.1-0.8
		c0.5,0.5,1.3,0.8,2.1,0.8c1.7,0,3.1-1.4,3.1-3.1S97.2,42.8,95.5,42.8z M93.2,45.9c0-0.4,0.1-0.8,0.3-1.1c0.2,0.3,0.3,0.7,0.3,1.1
		c0,0.4-0.1,0.8-0.3,1.1C93.3,46.7,93.2,46.3,93.2,45.9z M89,45.9c0-0.4,0.1-0.8,0.3-1.1c0.2,0.3,0.3,0.7,0.3,1.1s-0.1,0.8-0.3,1.1
		C89.1,46.7,89,46.3,89,45.9z M84.8,45.9c0-1.3,1.1-2.3,2.3-2.3c0.6,0,1.2,0.2,1.6,0.6c-0.3,0.5-0.5,1.1-0.5,1.7
		c0,0.6,0.2,1.2,0.5,1.7c-0.4,0.4-1,0.7-1.6,0.7C85.9,48.2,84.8,47.2,84.8,45.9z M89.7,47.6c0.3-0.5,0.5-1.1,0.5-1.7
		c0-0.6-0.2-1.2-0.5-1.7c0.4-0.4,1-0.6,1.6-0.6s1.2,0.2,1.6,0.6c-0.3,0.5-0.5,1.1-0.5,1.7c0,0.6,0.2,1.2,0.5,1.7
		c-0.4,0.4-1,0.6-1.6,0.6C90.7,48.2,90.1,48,89.7,47.6z M95.5,48.2c-0.6,0-1.2-0.2-1.6-0.6c0.3-0.5,0.5-1.1,0.5-1.7
		c0-0.6-0.2-1.2-0.5-1.7c0.4-0.4,1-0.6,1.6-0.6c1.3,0,2.3,1.1,2.3,2.3C97.9,47.2,96.8,48.2,95.5,48.2z"/>
	<polygon class="st3" points="93.7,54.2 91.7,54.2 91.7,52.7 90.9,52.7 90.9,54.2 88.9,54.2 88.9,55 90.9,55 90.9,59.6 91.7,59.6 
		91.7,55 93.7,55 	"/>
</g>
</svg>
